<mxfile host="Electron" agent="Mozilla/5.0 (Windows NT 10.0; Win64; x64) AppleWebKit/537.36 (KHTML, like Gecko) draw.io/24.7.17 Chrome/128.0.6613.36 Electron/32.0.1 Safari/537.36" version="24.7.17" pages="2">
  <diagram name="PÃ¡gina-1" id="wS7ssanduu3U8rkw7zow">
    <mxGraphModel dx="1290" dy="629" grid="1" gridSize="10" guides="1" tooltips="1" connect="1" arrows="1" fold="1" page="1" pageScale="1" pageWidth="827" pageHeight="1169" math="0" shadow="0">
      <root>
        <mxCell id="0" />
        <mxCell id="1" parent="0" />
        <mxCell id="Gz29lttUt1VIrkQhSzZi-1" value="" style="rounded=0;whiteSpace=wrap;html=1;" parent="1" vertex="1">
          <mxGeometry x="80" y="80" width="40" height="20" as="geometry" />
        </mxCell>
        <mxCell id="Gz29lttUt1VIrkQhSzZi-2" value="" style="rounded=0;whiteSpace=wrap;html=1;" parent="1" vertex="1">
          <mxGeometry x="120" y="80" width="40" height="20" as="geometry" />
        </mxCell>
        <mxCell id="Gz29lttUt1VIrkQhSzZi-3" value="" style="rounded=0;whiteSpace=wrap;html=1;" parent="1" vertex="1">
          <mxGeometry x="160" y="80" width="40" height="20" as="geometry" />
        </mxCell>
        <mxCell id="Gz29lttUt1VIrkQhSzZi-4" value="" style="rounded=0;whiteSpace=wrap;html=1;" parent="1" vertex="1">
          <mxGeometry x="200" y="80" width="40" height="20" as="geometry" />
        </mxCell>
        <mxCell id="Gz29lttUt1VIrkQhSzZi-5" value="" style="rounded=0;whiteSpace=wrap;html=1;" parent="1" vertex="1">
          <mxGeometry x="240" y="80" width="40" height="20" as="geometry" />
        </mxCell>
        <mxCell id="Gz29lttUt1VIrkQhSzZi-6" value="" style="rounded=0;whiteSpace=wrap;html=1;" parent="1" vertex="1">
          <mxGeometry x="280" y="80" width="80" height="20" as="geometry" />
        </mxCell>
        <mxCell id="Gz29lttUt1VIrkQhSzZi-7" value="&lt;font style=&quot;font-size: 8px;&quot;&gt;Turno&lt;/font&gt;" style="text;html=1;align=center;verticalAlign=middle;whiteSpace=wrap;rounded=0;" parent="1" vertex="1">
          <mxGeometry x="80" y="80" width="40" height="20" as="geometry" />
        </mxCell>
        <mxCell id="Gz29lttUt1VIrkQhSzZi-8" value="&lt;font style=&quot;font-size: 8px;&quot;&gt;NSS&lt;/font&gt;" style="text;html=1;align=center;verticalAlign=middle;whiteSpace=wrap;rounded=0;" parent="1" vertex="1">
          <mxGeometry x="120" y="80" width="40" height="20" as="geometry" />
        </mxCell>
        <mxCell id="Gz29lttUt1VIrkQhSzZi-9" value="&lt;span style=&quot;font-size: 8px;&quot;&gt;Nombre&lt;/span&gt;" style="text;html=1;align=center;verticalAlign=middle;whiteSpace=wrap;rounded=0;" parent="1" vertex="1">
          <mxGeometry x="160" y="80" width="40" height="20" as="geometry" />
        </mxCell>
        <mxCell id="Gz29lttUt1VIrkQhSzZi-10" value="&lt;font style=&quot;font-size: 8px;&quot;&gt;Direccion&lt;/font&gt;" style="text;html=1;align=center;verticalAlign=middle;whiteSpace=wrap;rounded=0;" parent="1" vertex="1">
          <mxGeometry x="200" y="80" width="40" height="20" as="geometry" />
        </mxCell>
        <mxCell id="Gz29lttUt1VIrkQhSzZi-11" value="&lt;font style=&quot;font-size: 8px;&quot;&gt;FechaNacimiento&lt;/font&gt;" style="text;html=1;align=center;verticalAlign=middle;whiteSpace=wrap;rounded=0;strokeWidth=0;" parent="1" vertex="1">
          <mxGeometry x="280" y="80" width="80" height="20" as="geometry" />
        </mxCell>
        <mxCell id="Gz29lttUt1VIrkQhSzZi-12" value="&lt;font style=&quot;font-size: 8px;&quot;&gt;Salario&lt;/font&gt;" style="text;html=1;align=center;verticalAlign=middle;whiteSpace=wrap;rounded=0;" parent="1" vertex="1">
          <mxGeometry x="240" y="80" width="40" height="20" as="geometry" />
        </mxCell>
        <mxCell id="Gz29lttUt1VIrkQhSzZi-13" value="" style="rounded=0;whiteSpace=wrap;html=1;" parent="1" vertex="1">
          <mxGeometry x="80" y="280" width="40" height="20" as="geometry" />
        </mxCell>
        <mxCell id="Gz29lttUt1VIrkQhSzZi-14" value="" style="rounded=0;whiteSpace=wrap;html=1;" parent="1" vertex="1">
          <mxGeometry x="120" y="280" width="40" height="20" as="geometry" />
        </mxCell>
        <mxCell id="Gz29lttUt1VIrkQhSzZi-15" value="" style="rounded=0;whiteSpace=wrap;html=1;" parent="1" vertex="1">
          <mxGeometry x="160" y="280" width="40" height="20" as="geometry" />
        </mxCell>
        <mxCell id="Gz29lttUt1VIrkQhSzZi-16" value="" style="rounded=0;whiteSpace=wrap;html=1;" parent="1" vertex="1">
          <mxGeometry x="200" y="280" width="40" height="20" as="geometry" />
        </mxCell>
        <mxCell id="Gz29lttUt1VIrkQhSzZi-17" value="" style="rounded=0;whiteSpace=wrap;html=1;" parent="1" vertex="1">
          <mxGeometry x="240" y="280" width="40" height="20" as="geometry" />
        </mxCell>
        <mxCell id="Gz29lttUt1VIrkQhSzZi-18" value="" style="rounded=0;whiteSpace=wrap;html=1;" parent="1" vertex="1">
          <mxGeometry x="280" y="280" width="40" height="20" as="geometry" />
        </mxCell>
        <mxCell id="Gz29lttUt1VIrkQhSzZi-19" value="&lt;font style=&quot;font-size: 7px;&quot;&gt;PacienteID&lt;/font&gt;" style="text;html=1;align=center;verticalAlign=middle;whiteSpace=wrap;rounded=0;" parent="1" vertex="1">
          <mxGeometry x="80" y="280" width="40" height="20" as="geometry" />
        </mxCell>
        <mxCell id="Gz29lttUt1VIrkQhSzZi-20" value="&lt;font style=&quot;font-size: 8px;&quot;&gt;Nombre&lt;/font&gt;" style="text;html=1;align=center;verticalAlign=middle;whiteSpace=wrap;rounded=0;" parent="1" vertex="1">
          <mxGeometry x="120" y="280" width="40" height="20" as="geometry" />
        </mxCell>
        <mxCell id="Gz29lttUt1VIrkQhSzZi-21" value="&lt;span style=&quot;font-size: 8px;&quot;&gt;Apellido1&lt;/span&gt;" style="text;html=1;align=center;verticalAlign=middle;whiteSpace=wrap;rounded=0;" parent="1" vertex="1">
          <mxGeometry x="160" y="280" width="40" height="20" as="geometry" />
        </mxCell>
        <mxCell id="Gz29lttUt1VIrkQhSzZi-22" value="&lt;font style=&quot;font-size: 8px;&quot;&gt;Apellido2&lt;/font&gt;" style="text;html=1;align=center;verticalAlign=middle;whiteSpace=wrap;rounded=0;" parent="1" vertex="1">
          <mxGeometry x="200" y="280" width="40" height="20" as="geometry" />
        </mxCell>
        <mxCell id="Gz29lttUt1VIrkQhSzZi-23" value="&lt;font style=&quot;font-size: 8px;&quot;&gt;Dolencia&lt;/font&gt;" style="text;html=1;align=center;verticalAlign=middle;whiteSpace=wrap;rounded=0;strokeWidth=0;" parent="1" vertex="1">
          <mxGeometry x="240" y="280" width="40" height="20" as="geometry" />
        </mxCell>
        <mxCell id="Gz29lttUt1VIrkQhSzZi-24" value="&lt;font style=&quot;font-size: 8px;&quot;&gt;Gravedad&lt;/font&gt;" style="text;html=1;align=center;verticalAlign=middle;whiteSpace=wrap;rounded=0;" parent="1" vertex="1">
          <mxGeometry x="280" y="280" width="40" height="20" as="geometry" />
        </mxCell>
        <mxCell id="Gz29lttUt1VIrkQhSzZi-25" value="&lt;div style=&quot;&quot;&gt;&lt;span style=&quot;background-color: initial; font-size: 8px;&quot;&gt;EMPLEADO&lt;/span&gt;&lt;/div&gt;" style="text;whiteSpace=wrap;html=1;align=center;" parent="1" vertex="1">
          <mxGeometry y="70" width="50" height="30" as="geometry" />
        </mxCell>
        <mxCell id="Gz29lttUt1VIrkQhSzZi-26" value="&lt;div style=&quot;&quot;&gt;&lt;span style=&quot;background-color: initial; font-size: 8px;&quot;&gt;PACIENTE&lt;/span&gt;&lt;/div&gt;" style="text;whiteSpace=wrap;html=1;align=center;" parent="1" vertex="1">
          <mxGeometry y="275" width="50" height="30" as="geometry" />
        </mxCell>
        <mxCell id="Gz29lttUt1VIrkQhSzZi-28" value="" style="rounded=0;whiteSpace=wrap;html=1;" parent="1" vertex="1">
          <mxGeometry x="80" y="120" width="80" height="20" as="geometry" />
        </mxCell>
        <mxCell id="Gz29lttUt1VIrkQhSzZi-29" value="" style="rounded=0;whiteSpace=wrap;html=1;" parent="1" vertex="1">
          <mxGeometry x="240" y="120" width="40" height="20" as="geometry" />
        </mxCell>
        <mxCell id="Gz29lttUt1VIrkQhSzZi-30" value="" style="rounded=0;whiteSpace=wrap;html=1;" parent="1" vertex="1">
          <mxGeometry x="160" y="120" width="80" height="20" as="geometry" />
        </mxCell>
        <mxCell id="Gz29lttUt1VIrkQhSzZi-32" value="&lt;font style=&quot;font-size: 8px;&quot;&gt;ConsultaID&lt;/font&gt;" style="rounded=0;whiteSpace=wrap;html=1;" parent="1" vertex="1">
          <mxGeometry x="80" y="480" width="80" height="20" as="geometry" />
        </mxCell>
        <mxCell id="Gz29lttUt1VIrkQhSzZi-33" value="" style="rounded=0;whiteSpace=wrap;html=1;" parent="1" vertex="1">
          <mxGeometry x="160" y="480" width="80" height="20" as="geometry" />
        </mxCell>
        <mxCell id="Gz29lttUt1VIrkQhSzZi-34" value="&lt;font style=&quot;font-size: 9px;&quot;&gt;Especialidad&lt;/font&gt;" style="text;html=1;align=center;verticalAlign=middle;whiteSpace=wrap;rounded=0;" parent="1" vertex="1">
          <mxGeometry x="80" y="120" width="80" height="20" as="geometry" />
        </mxCell>
        <mxCell id="Gz29lttUt1VIrkQhSzZi-35" value="&lt;font style=&quot;font-size: 8px;&quot;&gt;Tipo&lt;/font&gt;" style="text;html=1;align=center;verticalAlign=middle;whiteSpace=wrap;rounded=0;" parent="1" vertex="1">
          <mxGeometry x="240" y="120" width="40" height="20" as="geometry" />
        </mxCell>
        <mxCell id="Gz29lttUt1VIrkQhSzZi-36" value="&lt;font style=&quot;font-size: 8px;&quot;&gt;NumP&lt;/font&gt;&lt;span style=&quot;font-size: 8px; background-color: initial;&quot;&gt;acientes&lt;/span&gt;" style="text;html=1;align=center;verticalAlign=middle;whiteSpace=wrap;rounded=0;" parent="1" vertex="1">
          <mxGeometry x="160" y="120" width="80" height="20" as="geometry" />
        </mxCell>
        <mxCell id="Gz29lttUt1VIrkQhSzZi-41" value="&lt;div style=&quot;&quot;&gt;&lt;span style=&quot;font-size: 8px;&quot;&gt;MEDICO&lt;/span&gt;&lt;/div&gt;" style="text;whiteSpace=wrap;html=1;align=center;" parent="1" vertex="1">
          <mxGeometry y="115" width="50" height="30" as="geometry" />
        </mxCell>
        <mxCell id="Gz29lttUt1VIrkQhSzZi-48" value="" style="rounded=0;whiteSpace=wrap;html=1;" parent="1" vertex="1">
          <mxGeometry x="80" y="160" width="80" height="20" as="geometry" />
        </mxCell>
        <mxCell id="Gz29lttUt1VIrkQhSzZi-50" value="" style="rounded=0;whiteSpace=wrap;html=1;" parent="1" vertex="1">
          <mxGeometry x="160" y="160" width="80" height="20" as="geometry" />
        </mxCell>
        <mxCell id="Gz29lttUt1VIrkQhSzZi-51" value="&lt;font style=&quot;font-size: 8px;&quot;&gt;CamaID&lt;/font&gt;" style="rounded=0;whiteSpace=wrap;html=1;" parent="1" vertex="1">
          <mxGeometry x="80" y="440" width="40" height="20" as="geometry" />
        </mxCell>
        <mxCell id="Gz29lttUt1VIrkQhSzZi-52" value="&lt;font style=&quot;font-size: 8px;&quot;&gt;HoraConsulta&lt;/font&gt;" style="rounded=0;whiteSpace=wrap;html=1;" parent="1" vertex="1">
          <mxGeometry x="240" y="480" width="80" height="20" as="geometry" />
        </mxCell>
        <mxCell id="Gz29lttUt1VIrkQhSzZi-53" value="&lt;font style=&quot;font-size: 9px;&quot;&gt;Especialidad&lt;/font&gt;" style="text;html=1;align=center;verticalAlign=middle;whiteSpace=wrap;rounded=0;" parent="1" vertex="1">
          <mxGeometry x="80" y="160" width="80" height="20" as="geometry" />
        </mxCell>
        <mxCell id="Gz29lttUt1VIrkQhSzZi-55" value="&lt;font style=&quot;font-size: 8px;&quot;&gt;NumP&lt;/font&gt;&lt;span style=&quot;font-size: 8px; background-color: initial;&quot;&gt;acientes&lt;/span&gt;" style="text;html=1;align=center;verticalAlign=middle;whiteSpace=wrap;rounded=0;" parent="1" vertex="1">
          <mxGeometry x="160" y="160" width="80" height="20" as="geometry" />
        </mxCell>
        <mxCell id="Gz29lttUt1VIrkQhSzZi-56" value="&lt;div style=&quot;&quot;&gt;&lt;span style=&quot;font-size: 8px;&quot;&gt;ENFERMERO&lt;/span&gt;&lt;/div&gt;" style="text;whiteSpace=wrap;html=1;align=center;" parent="1" vertex="1">
          <mxGeometry y="155" width="60" height="30" as="geometry" />
        </mxCell>
        <mxCell id="Gz29lttUt1VIrkQhSzZi-58" value="&lt;font style=&quot;font-size: 8px;&quot;&gt;AdministrativoNSS&lt;/font&gt;" style="rounded=0;whiteSpace=wrap;html=1;" parent="1" vertex="1">
          <mxGeometry x="80" y="200" width="80" height="20" as="geometry" />
        </mxCell>
        <mxCell id="Gz29lttUt1VIrkQhSzZi-59" value="&lt;font style=&quot;font-size: 8px;&quot;&gt;NumeroHabitaciÃ³n&lt;/font&gt;" style="rounded=0;whiteSpace=wrap;html=1;" parent="1" vertex="1">
          <mxGeometry x="80" y="400" width="80" height="20" as="geometry" />
        </mxCell>
        <mxCell id="Gz29lttUt1VIrkQhSzZi-63" value="&lt;div style=&quot;&quot;&gt;&lt;span style=&quot;font-size: 8px;&quot;&gt;ADMINISTRATIVO&lt;/span&gt;&lt;/div&gt;" style="text;whiteSpace=wrap;html=1;align=center;" parent="1" vertex="1">
          <mxGeometry y="195" width="70" height="30" as="geometry" />
        </mxCell>
        <mxCell id="Gz29lttUt1VIrkQhSzZi-65" value="&lt;font style=&quot;font-size: 9px;&quot;&gt;LimpiezaNSS&lt;/font&gt;" style="rounded=0;whiteSpace=wrap;html=1;" parent="1" vertex="1">
          <mxGeometry x="80" y="240" width="80" height="20" as="geometry" />
        </mxCell>
        <mxCell id="Gz29lttUt1VIrkQhSzZi-66" value="" style="rounded=0;whiteSpace=wrap;html=1;" parent="1" vertex="1">
          <mxGeometry x="320" y="280" width="40" height="20" as="geometry" />
        </mxCell>
        <mxCell id="Gz29lttUt1VIrkQhSzZi-67" value="" style="rounded=0;whiteSpace=wrap;html=1;" parent="1" vertex="1">
          <mxGeometry x="360" y="280" width="40" height="20" as="geometry" />
        </mxCell>
        <mxCell id="Gz29lttUt1VIrkQhSzZi-68" value="&lt;div style=&quot;&quot;&gt;&lt;span style=&quot;font-size: 8px;&quot;&gt;LIMPIEZA&lt;/span&gt;&lt;/div&gt;" style="text;whiteSpace=wrap;html=1;align=center;" parent="1" vertex="1">
          <mxGeometry y="235" width="50" height="30" as="geometry" />
        </mxCell>
        <mxCell id="Gz29lttUt1VIrkQhSzZi-72" value="&lt;font style=&quot;font-size: 8px;&quot;&gt;DNI&lt;/font&gt;" style="text;html=1;align=center;verticalAlign=middle;whiteSpace=wrap;rounded=0;" parent="1" vertex="1">
          <mxGeometry x="320" y="280" width="40" height="20" as="geometry" />
        </mxCell>
        <mxCell id="Gz29lttUt1VIrkQhSzZi-73" value="&lt;font style=&quot;font-size: 7px;&quot;&gt;FechaAlta&lt;/font&gt;" style="text;html=1;align=center;verticalAlign=middle;whiteSpace=wrap;rounded=0;" parent="1" vertex="1">
          <mxGeometry x="360" y="280" width="40" height="20" as="geometry" />
        </mxCell>
        <mxCell id="Gz29lttUt1VIrkQhSzZi-74" value="" style="rounded=0;whiteSpace=wrap;html=1;" parent="1" vertex="1">
          <mxGeometry x="80" y="320" width="40" height="20" as="geometry" />
        </mxCell>
        <mxCell id="Gz29lttUt1VIrkQhSzZi-75" value="" style="rounded=0;whiteSpace=wrap;html=1;" parent="1" vertex="1">
          <mxGeometry x="120" y="320" width="40" height="20" as="geometry" />
        </mxCell>
        <mxCell id="Gz29lttUt1VIrkQhSzZi-76" value="" style="rounded=0;whiteSpace=wrap;html=1;" parent="1" vertex="1">
          <mxGeometry x="160" y="320" width="40" height="20" as="geometry" />
        </mxCell>
        <mxCell id="Gz29lttUt1VIrkQhSzZi-77" value="" style="rounded=0;whiteSpace=wrap;html=1;" parent="1" vertex="1">
          <mxGeometry x="200" y="320" width="40" height="20" as="geometry" />
        </mxCell>
        <mxCell id="Gz29lttUt1VIrkQhSzZi-78" value="" style="rounded=0;whiteSpace=wrap;html=1;" parent="1" vertex="1">
          <mxGeometry x="280" y="320" width="80" height="20" as="geometry" />
        </mxCell>
        <mxCell id="Gz29lttUt1VIrkQhSzZi-79" value="&lt;font style=&quot;font-size: 7px;&quot;&gt;FamiliarID&lt;/font&gt;" style="text;html=1;align=center;verticalAlign=middle;whiteSpace=wrap;rounded=0;" parent="1" vertex="1">
          <mxGeometry x="80" y="320" width="40" height="20" as="geometry" />
        </mxCell>
        <mxCell id="Gz29lttUt1VIrkQhSzZi-80" value="&lt;font style=&quot;font-size: 7px;&quot;&gt;PacienteID&lt;/font&gt;" style="text;html=1;align=center;verticalAlign=middle;whiteSpace=wrap;rounded=0;" parent="1" vertex="1">
          <mxGeometry x="120" y="320" width="40" height="20" as="geometry" />
        </mxCell>
        <mxCell id="Gz29lttUt1VIrkQhSzZi-81" value="&lt;span style=&quot;font-size: 8px;&quot;&gt;Nombre&lt;/span&gt;" style="text;html=1;align=center;verticalAlign=middle;whiteSpace=wrap;rounded=0;" parent="1" vertex="1">
          <mxGeometry x="160" y="320" width="40" height="20" as="geometry" />
        </mxCell>
        <mxCell id="Gz29lttUt1VIrkQhSzZi-82" value="&lt;font style=&quot;font-size: 8px;&quot;&gt;Sexo&lt;/font&gt;" style="text;html=1;align=center;verticalAlign=middle;whiteSpace=wrap;rounded=0;" parent="1" vertex="1">
          <mxGeometry x="200" y="320" width="40" height="20" as="geometry" />
        </mxCell>
        <mxCell id="Gz29lttUt1VIrkQhSzZi-83" value="&lt;font style=&quot;font-size: 8px;&quot;&gt;FechaNacimiento&lt;/font&gt;" style="text;html=1;align=center;verticalAlign=middle;whiteSpace=wrap;rounded=0;strokeWidth=0;" parent="1" vertex="1">
          <mxGeometry x="280" y="320" width="80" height="20" as="geometry" />
        </mxCell>
        <mxCell id="Gz29lttUt1VIrkQhSzZi-84" value="&lt;font style=&quot;font-size: 8px;&quot;&gt;RelaciÃ³n&lt;/font&gt;" style="rounded=0;whiteSpace=wrap;html=1;" parent="1" vertex="1">
          <mxGeometry x="240" y="320" width="40" height="20" as="geometry" />
        </mxCell>
        <mxCell id="Gz29lttUt1VIrkQhSzZi-85" value="&lt;div style=&quot;&quot;&gt;&lt;span style=&quot;background-color: initial; font-size: 8px;&quot;&gt;FAMILIAR&lt;/span&gt;&lt;/div&gt;" style="text;whiteSpace=wrap;html=1;align=center;" parent="1" vertex="1">
          <mxGeometry y="315" width="50" height="30" as="geometry" />
        </mxCell>
        <mxCell id="Gz29lttUt1VIrkQhSzZi-86" value="&lt;font style=&quot;font-size: 9px;&quot;&gt;NumeroPlanta&lt;/font&gt;" style="rounded=0;whiteSpace=wrap;html=1;" parent="1" vertex="1">
          <mxGeometry x="80" y="360" width="80" height="20" as="geometry" />
        </mxCell>
        <mxCell id="Gz29lttUt1VIrkQhSzZi-87" value="&lt;font style=&quot;font-size: 10px;&quot;&gt;Capacidad&lt;/font&gt;" style="rounded=0;whiteSpace=wrap;html=1;" parent="1" vertex="1">
          <mxGeometry x="160" y="360" width="80" height="20" as="geometry" />
        </mxCell>
        <mxCell id="Gz29lttUt1VIrkQhSzZi-88" value="&lt;font style=&quot;font-size: 9px;&quot;&gt;Especialidad&lt;/font&gt;" style="rounded=0;whiteSpace=wrap;html=1;" parent="1" vertex="1">
          <mxGeometry x="240" y="360" width="80" height="20" as="geometry" />
        </mxCell>
        <mxCell id="Gz29lttUt1VIrkQhSzZi-92" value="&lt;div style=&quot;&quot;&gt;&lt;span style=&quot;background-color: initial; font-size: 8px;&quot;&gt;PLANTA&lt;/span&gt;&lt;/div&gt;" style="text;whiteSpace=wrap;html=1;align=center;" parent="1" vertex="1">
          <mxGeometry y="355" width="50" height="30" as="geometry" />
        </mxCell>
        <mxCell id="Gz29lttUt1VIrkQhSzZi-94" value="&lt;div style=&quot;&quot;&gt;&lt;span style=&quot;background-color: initial; font-size: 8px;&quot;&gt;HABITACIÃN&lt;/span&gt;&lt;/div&gt;" style="text;whiteSpace=wrap;html=1;align=center;" parent="1" vertex="1">
          <mxGeometry y="395" width="50" height="30" as="geometry" />
        </mxCell>
        <mxCell id="Gz29lttUt1VIrkQhSzZi-95" value="&lt;div style=&quot;&quot;&gt;&lt;span style=&quot;background-color: initial; font-size: 8px;&quot;&gt;CAMA&lt;/span&gt;&lt;/div&gt;" style="text;whiteSpace=wrap;html=1;align=center;" parent="1" vertex="1">
          <mxGeometry y="435" width="50" height="30" as="geometry" />
        </mxCell>
        <mxCell id="Gz29lttUt1VIrkQhSzZi-96" value="&lt;font style=&quot;font-size: 8px;&quot;&gt;FechaConsulta&lt;/font&gt;" style="rounded=0;whiteSpace=wrap;html=1;" parent="1" vertex="1">
          <mxGeometry x="160" y="480" width="80" height="20" as="geometry" />
        </mxCell>
        <mxCell id="Gz29lttUt1VIrkQhSzZi-97" value="&lt;div style=&quot;&quot;&gt;&lt;span style=&quot;background-color: initial; font-size: 8px;&quot;&gt;CONSULTA&lt;/span&gt;&lt;/div&gt;" style="text;whiteSpace=wrap;html=1;align=center;" parent="1" vertex="1">
          <mxGeometry y="475" width="50" height="30" as="geometry" />
        </mxCell>
        <mxCell id="Gz29lttUt1VIrkQhSzZi-99" value="&lt;font style=&quot;font-size: 8px;&quot;&gt;DiagnosticoID&lt;/font&gt;" style="rounded=0;whiteSpace=wrap;html=1;" parent="1" vertex="1">
          <mxGeometry x="80" y="520" width="80" height="20" as="geometry" />
        </mxCell>
        <mxCell id="Gz29lttUt1VIrkQhSzZi-100" value="" style="rounded=0;whiteSpace=wrap;html=1;" parent="1" vertex="1">
          <mxGeometry x="160" y="520" width="80" height="20" as="geometry" />
        </mxCell>
        <mxCell id="Gz29lttUt1VIrkQhSzZi-101" value="&lt;font style=&quot;font-size: 8px;&quot;&gt;Severidad&lt;/font&gt;" style="rounded=0;whiteSpace=wrap;html=1;" parent="1" vertex="1">
          <mxGeometry x="240" y="520" width="80" height="20" as="geometry" />
        </mxCell>
        <mxCell id="Gz29lttUt1VIrkQhSzZi-102" value="&lt;font style=&quot;font-size: 8px;&quot;&gt;Descripcion&lt;/font&gt;" style="rounded=0;whiteSpace=wrap;html=1;" parent="1" vertex="1">
          <mxGeometry x="160" y="520" width="80" height="20" as="geometry" />
        </mxCell>
        <mxCell id="Gz29lttUt1VIrkQhSzZi-103" value="&lt;div style=&quot;&quot;&gt;&lt;span style=&quot;background-color: initial; font-size: 8px;&quot;&gt;DIAGNOSTICO&lt;/span&gt;&lt;/div&gt;" style="text;whiteSpace=wrap;html=1;align=center;" parent="1" vertex="1">
          <mxGeometry y="515" width="60" height="30" as="geometry" />
        </mxCell>
        <mxCell id="Gz29lttUt1VIrkQhSzZi-104" value="&lt;font style=&quot;font-size: 8px;&quot;&gt;TratamientoID&lt;/font&gt;" style="rounded=0;whiteSpace=wrap;html=1;" parent="1" vertex="1">
          <mxGeometry x="80" y="560" width="80" height="20" as="geometry" />
        </mxCell>
        <mxCell id="Gz29lttUt1VIrkQhSzZi-105" value="" style="rounded=0;whiteSpace=wrap;html=1;" parent="1" vertex="1">
          <mxGeometry x="160" y="560" width="80" height="20" as="geometry" />
        </mxCell>
        <mxCell id="Gz29lttUt1VIrkQhSzZi-106" value="&lt;font style=&quot;font-size: 9px;&quot;&gt;Duracion&lt;/font&gt;" style="rounded=0;whiteSpace=wrap;html=1;" parent="1" vertex="1">
          <mxGeometry x="160" y="560" width="80" height="20" as="geometry" />
        </mxCell>
        <mxCell id="Gz29lttUt1VIrkQhSzZi-107" value="&lt;font style=&quot;font-size: 9px;&quot;&gt;DescripcionTratamiento&lt;/font&gt;" style="rounded=0;whiteSpace=wrap;html=1;" parent="1" vertex="1">
          <mxGeometry x="240" y="560" width="120" height="20" as="geometry" />
        </mxCell>
        <mxCell id="Gz29lttUt1VIrkQhSzZi-108" value="&lt;div style=&quot;&quot;&gt;&lt;span style=&quot;background-color: initial; font-size: 8px;&quot;&gt;TRATAMIENTO&lt;/span&gt;&lt;/div&gt;" style="text;whiteSpace=wrap;html=1;align=center;" parent="1" vertex="1">
          <mxGeometry y="555" width="60" height="30" as="geometry" />
        </mxCell>
        <mxCell id="Gz29lttUt1VIrkQhSzZi-113" value="&lt;font style=&quot;font-size: 8px;&quot;&gt;MuestraID&lt;/font&gt;" style="rounded=0;whiteSpace=wrap;html=1;" parent="1" vertex="1">
          <mxGeometry x="80" y="600" width="40" height="20" as="geometry" />
        </mxCell>
        <mxCell id="Gz29lttUt1VIrkQhSzZi-114" value="&lt;font style=&quot;font-size: 9px;&quot;&gt;TipoMuestra&lt;/font&gt;" style="rounded=0;whiteSpace=wrap;html=1;" parent="1" vertex="1">
          <mxGeometry x="120" y="600" width="80" height="20" as="geometry" />
        </mxCell>
        <mxCell id="Gz29lttUt1VIrkQhSzZi-115" value="&lt;font style=&quot;font-size: 9px;&quot;&gt;FechaToma&lt;/font&gt;&lt;span style=&quot;color: rgba(0, 0, 0, 0); font-family: monospace; font-size: 0px; text-align: start; text-wrap-mode: nowrap;&quot;&gt;%3CmxGraphModel%3E%3Croot%3E%3CmxCell%20id%3D%220%22%2F%3E%3CmxCell%20id%3D%221%22%20parent%3D%220%22%2F%3E%3CmxCell%20id%3D%222%22%20value%3D%22%26lt%3Bfont%20style%3D%26quot%3Bfont-size%3A%209px%3B%26quot%3B%26gt%3BTipoMuestra%26lt%3B%2Ffont%26gt%3B%22%20style%3D%22rounded%3D0%3BwhiteSpace%3Dwrap%3Bhtml%3D1%3B%22%20vertex%3D%221%22%20parent%3D%221%22%3E%3CmxGeometry%20x%3D%22120%22%20y%3D%22600%22%20width%3D%2280%22%20height%3D%2220%22%20as%3D%22geometry%22%2F%3E%3C%2FmxCell%3E%3C%2Froot%3E%3C%2FmxGraphModel%3E&lt;/span&gt;" style="rounded=0;whiteSpace=wrap;html=1;" parent="1" vertex="1">
          <mxGeometry x="200" y="600" width="80" height="20" as="geometry" />
        </mxCell>
        <mxCell id="Gz29lttUt1VIrkQhSzZi-116" value="&lt;font size=&quot;1&quot;&gt;Resultados&lt;/font&gt;" style="rounded=0;whiteSpace=wrap;html=1;" parent="1" vertex="1">
          <mxGeometry x="280" y="600" width="80" height="20" as="geometry" />
        </mxCell>
        <mxCell id="Gz29lttUt1VIrkQhSzZi-117" value="&lt;div style=&quot;&quot;&gt;&lt;span style=&quot;background-color: initial; font-size: 8px;&quot;&gt;MUESTRA&lt;/span&gt;&lt;/div&gt;" style="text;whiteSpace=wrap;html=1;align=center;" parent="1" vertex="1">
          <mxGeometry y="595" width="60" height="25" as="geometry" />
        </mxCell>
        <mxCell id="Gz29lttUt1VIrkQhSzZi-122" value="&lt;font style=&quot;font-size: 8px;&quot;&gt;IngresoID&lt;/font&gt;" style="rounded=0;whiteSpace=wrap;html=1;" parent="1" vertex="1">
          <mxGeometry x="80" y="640" width="40" height="20" as="geometry" />
        </mxCell>
        <mxCell id="Gz29lttUt1VIrkQhSzZi-123" value="&lt;font style=&quot;font-size: 9px;&quot;&gt;FechaIngreso&lt;/font&gt;" style="rounded=0;whiteSpace=wrap;html=1;" parent="1" vertex="1">
          <mxGeometry x="120" y="640" width="80" height="20" as="geometry" />
        </mxCell>
        <mxCell id="Gz29lttUt1VIrkQhSzZi-124" value="&lt;font style=&quot;font-size: 9px;&quot;&gt;FechaAlta&lt;/font&gt;" style="rounded=0;whiteSpace=wrap;html=1;" parent="1" vertex="1">
          <mxGeometry x="200" y="640" width="80" height="20" as="geometry" />
        </mxCell>
        <mxCell id="Gz29lttUt1VIrkQhSzZi-125" value="&lt;font style=&quot;font-size: 9px;&quot;&gt;Motivo&lt;/font&gt;" style="rounded=0;whiteSpace=wrap;html=1;" parent="1" vertex="1">
          <mxGeometry x="280" y="640" width="40" height="20" as="geometry" />
        </mxCell>
        <mxCell id="Gz29lttUt1VIrkQhSzZi-126" value="&lt;div style=&quot;&quot;&gt;&lt;span style=&quot;background-color: initial; font-size: 8px;&quot;&gt;INGRESO&lt;/span&gt;&lt;/div&gt;" style="text;whiteSpace=wrap;html=1;align=center;" parent="1" vertex="1">
          <mxGeometry y="637.5" width="60" height="25" as="geometry" />
        </mxCell>
        <mxCell id="Gz29lttUt1VIrkQhSzZi-127" value="&lt;font style=&quot;font-size: 8px;&quot;&gt;VisitaID&lt;/font&gt;" style="rounded=0;whiteSpace=wrap;html=1;" parent="1" vertex="1">
          <mxGeometry x="80" y="680" width="40" height="20" as="geometry" />
        </mxCell>
        <mxCell id="Gz29lttUt1VIrkQhSzZi-128" value="&lt;font style=&quot;font-size: 9px;&quot;&gt;FechaVisita&lt;/font&gt;" style="rounded=0;whiteSpace=wrap;html=1;" parent="1" vertex="1">
          <mxGeometry x="120" y="680" width="80" height="20" as="geometry" />
        </mxCell>
        <mxCell id="Gz29lttUt1VIrkQhSzZi-129" value="&lt;font style=&quot;font-size: 9px;&quot;&gt;Duracion&lt;/font&gt;" style="rounded=0;whiteSpace=wrap;html=1;" parent="1" vertex="1">
          <mxGeometry x="200" y="680" width="80" height="20" as="geometry" />
        </mxCell>
        <mxCell id="Gz29lttUt1VIrkQhSzZi-130" value="&lt;div style=&quot;&quot;&gt;&lt;span style=&quot;background-color: initial; font-size: 8px;&quot;&gt;VISITA&lt;/span&gt;&lt;/div&gt;" style="text;whiteSpace=wrap;html=1;align=center;" parent="1" vertex="1">
          <mxGeometry y="677.5" width="60" height="25" as="geometry" />
        </mxCell>
        <mxCell id="Gz29lttUt1VIrkQhSzZi-134" value="&lt;font style=&quot;font-size: 8px;&quot;&gt;EspecialidadID&lt;/font&gt;" style="rounded=0;whiteSpace=wrap;html=1;" parent="1" vertex="1">
          <mxGeometry x="80" y="720" width="80" height="20" as="geometry" />
        </mxCell>
        <mxCell id="Gz29lttUt1VIrkQhSzZi-135" value="" style="rounded=0;whiteSpace=wrap;html=1;" parent="1" vertex="1">
          <mxGeometry x="160" y="720" width="80" height="20" as="geometry" />
        </mxCell>
        <mxCell id="Gz29lttUt1VIrkQhSzZi-136" value="&lt;font style=&quot;font-size: 8px;&quot;&gt;Descripcion&lt;/font&gt;" style="rounded=0;whiteSpace=wrap;html=1;" parent="1" vertex="1">
          <mxGeometry x="240" y="720" width="80" height="20" as="geometry" />
        </mxCell>
        <mxCell id="Gz29lttUt1VIrkQhSzZi-137" value="&lt;font style=&quot;font-size: 8px;&quot;&gt;NombreEspecialidad&lt;/font&gt;" style="rounded=0;whiteSpace=wrap;html=1;" parent="1" vertex="1">
          <mxGeometry x="160" y="720" width="80" height="20" as="geometry" />
        </mxCell>
        <mxCell id="Gz29lttUt1VIrkQhSzZi-138" value="&lt;div style=&quot;&quot;&gt;&lt;span style=&quot;background-color: initial; font-size: 8px;&quot;&gt;ESPECIALIDAD&lt;/span&gt;&lt;/div&gt;" style="text;whiteSpace=wrap;html=1;align=center;" parent="1" vertex="1">
          <mxGeometry y="715" width="70" height="30" as="geometry" />
        </mxCell>
        <mxCell id="Gz29lttUt1VIrkQhSzZi-139" value="&lt;font style=&quot;font-size: 8px;&quot;&gt;HorarioID&lt;/font&gt;" style="rounded=0;whiteSpace=wrap;html=1;" parent="1" vertex="1">
          <mxGeometry x="80" y="760" width="40" height="20" as="geometry" />
        </mxCell>
        <mxCell id="Gz29lttUt1VIrkQhSzZi-140" value="&lt;font style=&quot;font-size: 9px;&quot;&gt;HoraInicio&lt;/font&gt;" style="rounded=0;whiteSpace=wrap;html=1;" parent="1" vertex="1">
          <mxGeometry x="120" y="760" width="80" height="20" as="geometry" />
        </mxCell>
        <mxCell id="Gz29lttUt1VIrkQhSzZi-141" value="&lt;font style=&quot;font-size: 9px;&quot;&gt;HoraFin&lt;/font&gt;" style="rounded=0;whiteSpace=wrap;html=1;" parent="1" vertex="1">
          <mxGeometry x="200" y="760" width="40" height="20" as="geometry" />
        </mxCell>
        <mxCell id="Gz29lttUt1VIrkQhSzZi-142" value="&lt;font style=&quot;font-size: 8px;&quot;&gt;Turno&lt;/font&gt;" style="rounded=0;whiteSpace=wrap;html=1;" parent="1" vertex="1">
          <mxGeometry x="240" y="760" width="40" height="20" as="geometry" />
        </mxCell>
        <mxCell id="Gz29lttUt1VIrkQhSzZi-143" value="&lt;div style=&quot;&quot;&gt;&lt;span style=&quot;background-color: initial; font-size: 8px;&quot;&gt;HORARIO&lt;/span&gt;&lt;/div&gt;" style="text;whiteSpace=wrap;html=1;align=center;" parent="1" vertex="1">
          <mxGeometry y="755" width="70" height="30" as="geometry" />
        </mxCell>
        <mxCell id="Gz29lttUt1VIrkQhSzZi-144" value="&lt;div style=&quot;&quot;&gt;&lt;span style=&quot;background-color: initial; font-size: 8px;&quot;&gt;HORARIO&lt;/span&gt;&lt;/div&gt;" style="text;whiteSpace=wrap;html=1;align=center;" parent="1" vertex="1">
          <mxGeometry y="795" width="70" height="30" as="geometry" />
        </mxCell>
        <mxCell id="Gz29lttUt1VIrkQhSzZi-145" value="&lt;font style=&quot;font-size: 8px;&quot;&gt;TurnoID&lt;/font&gt;" style="rounded=0;whiteSpace=wrap;html=1;" parent="1" vertex="1">
          <mxGeometry x="80" y="800" width="40" height="20" as="geometry" />
        </mxCell>
        <mxCell id="Gz29lttUt1VIrkQhSzZi-146" value="&lt;font style=&quot;font-size: 9px;&quot;&gt;TipoTurno&lt;/font&gt;" style="rounded=0;whiteSpace=wrap;html=1;" parent="1" vertex="1">
          <mxGeometry x="120" y="800" width="80" height="20" as="geometry" />
        </mxCell>
        <mxCell id="Gz29lttUt1VIrkQhSzZi-147" value="&lt;font style=&quot;font-size: 9px;&quot;&gt;HistoriaID&lt;/font&gt;" style="rounded=0;whiteSpace=wrap;html=1;" parent="1" vertex="1">
          <mxGeometry x="80" y="840" width="80" height="20" as="geometry" />
        </mxCell>
        <mxCell id="Gz29lttUt1VIrkQhSzZi-148" value="" style="rounded=0;whiteSpace=wrap;html=1;" parent="1" vertex="1">
          <mxGeometry x="160" y="840" width="80" height="20" as="geometry" />
        </mxCell>
        <mxCell id="Gz29lttUt1VIrkQhSzZi-149" value="&lt;font style=&quot;font-size: 8px;&quot;&gt;Detalles&lt;/font&gt;" style="rounded=0;whiteSpace=wrap;html=1;" parent="1" vertex="1">
          <mxGeometry x="240" y="840" width="40" height="20" as="geometry" />
        </mxCell>
        <mxCell id="Gz29lttUt1VIrkQhSzZi-150" value="&lt;font style=&quot;font-size: 9px;&quot;&gt;FechaCreacion&lt;/font&gt;" style="rounded=0;whiteSpace=wrap;html=1;" parent="1" vertex="1">
          <mxGeometry x="160" y="840" width="80" height="20" as="geometry" />
        </mxCell>
        <mxCell id="Gz29lttUt1VIrkQhSzZi-151" value="&lt;div style=&quot;&quot;&gt;&lt;span style=&quot;background-color: initial; font-size: 8px;&quot;&gt;HISTORIA&lt;/span&gt;&lt;/div&gt;&lt;div style=&quot;&quot;&gt;&lt;span style=&quot;background-color: initial; font-size: 8px;&quot;&gt;CLINICA&lt;/span&gt;&lt;/div&gt;" style="text;whiteSpace=wrap;html=1;align=center;" parent="1" vertex="1">
          <mxGeometry y="830" width="70" height="35" as="geometry" />
        </mxCell>
        <mxCell id="OsDs3oI97EFDWC1bMl01-1" value="&lt;font style=&quot;font-size: 9px;&quot;&gt;Capacidad&lt;/font&gt;" style="rounded=0;whiteSpace=wrap;html=1;" parent="1" vertex="1">
          <mxGeometry x="80" y="880" width="80" height="20" as="geometry" />
        </mxCell>
        <mxCell id="OsDs3oI97EFDWC1bMl01-2" value="&lt;div style=&quot;&quot;&gt;&lt;span style=&quot;font-size: 8px;&quot;&gt;FARMACIA&lt;/span&gt;&lt;/div&gt;" style="text;whiteSpace=wrap;html=1;align=center;" parent="1" vertex="1">
          <mxGeometry y="876.25" width="70" height="27.5" as="geometry" />
        </mxCell>
        <mxCell id="OsDs3oI97EFDWC1bMl01-3" value="&lt;font style=&quot;font-size: 9px;&quot;&gt;MedicamentoID&lt;/font&gt;" style="rounded=0;whiteSpace=wrap;html=1;" parent="1" vertex="1">
          <mxGeometry x="160" y="880" width="80" height="20" as="geometry" />
        </mxCell>
        <mxCell id="OsDs3oI97EFDWC1bMl01-4" value="&lt;font style=&quot;font-size: 9px;&quot;&gt;Caducidad&lt;/font&gt;" style="rounded=0;whiteSpace=wrap;html=1;" parent="1" vertex="1">
          <mxGeometry x="80" y="920" width="80" height="20" as="geometry" />
        </mxCell>
        <mxCell id="OsDs3oI97EFDWC1bMl01-5" value="&lt;font style=&quot;font-size: 9px;&quot;&gt;EtiquetaID&lt;/font&gt;" style="rounded=0;whiteSpace=wrap;html=1;" parent="1" vertex="1">
          <mxGeometry x="160" y="920" width="80" height="20" as="geometry" />
        </mxCell>
        <mxCell id="OsDs3oI97EFDWC1bMl01-6" value="&lt;div style=&quot;&quot;&gt;&lt;span style=&quot;font-size: 8px;&quot;&gt;MEDICAMENTO&lt;/span&gt;&lt;/div&gt;" style="text;whiteSpace=wrap;html=1;align=center;" parent="1" vertex="1">
          <mxGeometry y="916.25" width="70" height="27.5" as="geometry" />
        </mxCell>
        <mxCell id="OsDs3oI97EFDWC1bMl01-8" value="&lt;font style=&quot;font-size: 9px;&quot;&gt;Duracion&lt;/font&gt;" style="rounded=0;whiteSpace=wrap;html=1;" parent="1" vertex="1">
          <mxGeometry x="80" y="960" width="80" height="20" as="geometry" />
        </mxCell>
        <mxCell id="OsDs3oI97EFDWC1bMl01-9" value="&lt;font style=&quot;font-size: 9px;&quot;&gt;FamiliarID&lt;/font&gt;" style="rounded=0;whiteSpace=wrap;html=1;" parent="1" vertex="1">
          <mxGeometry x="160" y="960" width="80" height="20" as="geometry" />
        </mxCell>
        <mxCell id="OsDs3oI97EFDWC1bMl01-10" value="&lt;div style=&quot;&quot;&gt;&lt;span style=&quot;font-size: 8px;&quot;&gt;VISITADO_POR&lt;/span&gt;&lt;/div&gt;" style="text;whiteSpace=wrap;html=1;align=center;" parent="1" vertex="1">
          <mxGeometry y="956.25" width="70" height="27.5" as="geometry" />
        </mxCell>
      </root>
    </mxGraphModel>
  </diagram>
  <diagram id="GbKklMfhR8GmjY6hD1RR" name="PÃ¡gina-2">
    <mxGraphModel dx="2736" dy="1144" grid="0" gridSize="10" guides="1" tooltips="1" connect="1" arrows="1" fold="1" page="1" pageScale="1" pageWidth="827" pageHeight="1169" background="#ffffff" math="0" shadow="0">
      <root>
        <mxCell id="0" />
        <mxCell id="1" parent="0" />
        <mxCell id="WFSwsWvmqa4uhrpM-cqG-1" value="&lt;b&gt;HOSPITAL &lt;/b&gt;(&lt;u&gt;DirecciÃ³n&lt;/u&gt;, Nombre, &lt;u&gt;Num_Planta&lt;/u&gt;)" style="text;html=1;align=center;verticalAlign=middle;resizable=0;points=[];autosize=1;strokeColor=none;fillColor=none;fontColor=#000000;" vertex="1" parent="1">
          <mxGeometry x="5" y="62" width="261" height="26" as="geometry" />
        </mxCell>
        <mxCell id="WFSwsWvmqa4uhrpM-cqG-2" value="&lt;b&gt;PLANTA &lt;/b&gt;(&lt;u&gt;Num_Planta&lt;/u&gt;, &lt;u&gt;Num_hab&lt;/u&gt;, &lt;u&gt;NSS_EMP_Limp&lt;/u&gt;)" style="text;html=1;align=center;verticalAlign=middle;resizable=0;points=[];autosize=1;strokeColor=none;fillColor=none;fontColor=#000000;" vertex="1" parent="1">
          <mxGeometry x="6" y="142" width="298" height="26" as="geometry" />
        </mxCell>
        <mxCell id="WFSwsWvmqa4uhrpM-cqG-3" value="&lt;b&gt;EMPLEADO&lt;/b&gt; (&lt;u&gt;NSS&lt;/u&gt;, Nombre, DirecciÃ³n, Fecha_Nac, Salario)" style="text;html=1;align=center;verticalAlign=middle;resizable=0;points=[];autosize=1;strokeColor=none;fillColor=none;fontColor=#000000;" vertex="1" parent="1">
          <mxGeometry y="220" width="350" height="30" as="geometry" />
        </mxCell>
        <mxCell id="WFSwsWvmqa4uhrpM-cqG-4" value="&lt;b&gt;HORARIO&lt;/b&gt; (&lt;u&gt;ID&lt;/u&gt;, &lt;u&gt;NSS_Emp&lt;/u&gt;)" style="text;html=1;align=center;verticalAlign=middle;resizable=0;points=[];autosize=1;strokeColor=none;fillColor=none;fontColor=#000000;" vertex="1" parent="1">
          <mxGeometry x="5" y="302" width="161" height="26" as="geometry" />
        </mxCell>
        <mxCell id="WFSwsWvmqa4uhrpM-cqG-5" value="&lt;b&gt;CAMA&lt;/b&gt; (&lt;u&gt;Num_Cama&lt;/u&gt;)" style="text;html=1;align=center;verticalAlign=middle;resizable=0;points=[];autosize=1;strokeColor=none;fillColor=none;fontColor=#000000;" vertex="1" parent="1">
          <mxGeometry y="380" width="130" height="30" as="geometry" />
        </mxCell>
        <mxCell id="WFSwsWvmqa4uhrpM-cqG-6" value="&lt;b&gt;HABITACIÃN&lt;/b&gt; (&lt;u&gt;Num_hab&lt;/u&gt;, &lt;u&gt;Num_cama&lt;/u&gt;)" style="text;html=1;align=center;verticalAlign=middle;resizable=0;points=[];autosize=1;strokeColor=none;fillColor=none;fontColor=#000000;" vertex="1" parent="1">
          <mxGeometry x="3" y="462" width="224" height="26" as="geometry" />
        </mxCell>
        <mxCell id="WFSwsWvmqa4uhrpM-cqG-7" value="&lt;b&gt;FARMACIA&lt;/b&gt;&amp;nbsp;(&lt;u&gt;Capacidad&lt;/u&gt;, &lt;u&gt;Num_hab&lt;/u&gt;, &lt;u&gt;Etiquetado_Med&lt;/u&gt;)" style="text;html=1;align=center;verticalAlign=middle;resizable=0;points=[];autosize=1;strokeColor=none;fillColor=none;fontColor=#000000;" vertex="1" parent="1">
          <mxGeometry x="4" y="542" width="303" height="26" as="geometry" />
        </mxCell>
        <mxCell id="WFSwsWvmqa4uhrpM-cqG-8" value="&lt;b&gt;MEDICAMENTO &lt;/b&gt;(&lt;u&gt;Etiquetado&lt;/u&gt;, &lt;u&gt;Caducidad&lt;/u&gt;)" style="text;html=1;align=center;verticalAlign=middle;resizable=0;points=[];autosize=1;strokeColor=none;fillColor=none;fontColor=#000000;" vertex="1" parent="1">
          <mxGeometry x="5" y="622" width="241" height="26" as="geometry" />
        </mxCell>
        <mxCell id="WFSwsWvmqa4uhrpM-cqG-9" value="&lt;b&gt;PACIENTE&lt;/b&gt;&amp;nbsp;(&lt;u&gt;DNI&lt;/u&gt;, Nombre, FechaAlta, Historial, Dolencia, &lt;u&gt;Num_Cama&lt;/u&gt;, DiagnÃ³stico, FechaConsulta)" style="text;html=1;align=center;verticalAlign=middle;resizable=0;points=[];autosize=1;strokeColor=none;fillColor=none;fontColor=#000000;" vertex="1" parent="1">
          <mxGeometry x="5" y="700" width="551" height="26" as="geometry" />
        </mxCell>
        <mxCell id="WFSwsWvmqa4uhrpM-cqG-10" value="&lt;b&gt;FAMILIAR&lt;/b&gt;&amp;nbsp;(&lt;u&gt;Nombre&lt;/u&gt;, &lt;u&gt;DNI&lt;/u&gt;, Fecha, RelaciÃ³n, DuraciÃ³nVisita, ID)" style="text;html=1;align=center;verticalAlign=middle;resizable=0;points=[];autosize=1;strokeColor=none;fillColor=none;fontColor=#000000;" vertex="1" parent="1">
          <mxGeometry x="4" y="781" width="352" height="26" as="geometry" />
        </mxCell>
        <mxCell id="WFSwsWvmqa4uhrpM-cqG-11" value="&lt;b&gt;ADMINISTRATIVO &lt;/b&gt;(&lt;u&gt;NSS_Emp&lt;/u&gt;)" style="text;html=1;align=center;verticalAlign=middle;resizable=0;points=[];autosize=1;strokeColor=none;fillColor=none;fontColor=#000000;" vertex="1" parent="1">
          <mxGeometry x="1" y="862" width="188" height="26" as="geometry" />
        </mxCell>
        <mxCell id="WFSwsWvmqa4uhrpM-cqG-12" value="&lt;font color=&quot;#000000&quot;&gt;&lt;b&gt;LIMPIEZA &lt;/b&gt;(&lt;u&gt;NSS_Emp&lt;/u&gt;)&lt;/font&gt;" style="text;html=1;align=center;verticalAlign=middle;resizable=0;points=[];autosize=1;strokeColor=none;fillColor=none;" vertex="1" parent="1">
          <mxGeometry y="940" width="141" height="26" as="geometry" />
        </mxCell>
        <mxCell id="WFSwsWvmqa4uhrpM-cqG-13" value="&lt;font color=&quot;#000000&quot;&gt;&lt;b&gt;ENFERMERO &lt;/b&gt;(&lt;u&gt;NSS_Emp&lt;/u&gt;,&amp;nbsp;&lt;/font&gt;&lt;span style=&quot;color: rgb(0, 0, 0);&quot;&gt;&lt;u&gt;DNI_Paciente&lt;/u&gt;&lt;/span&gt;&lt;font color=&quot;#000000&quot;&gt;, Num_Pacientes)&lt;/font&gt;" style="text;html=1;align=center;verticalAlign=middle;resizable=0;points=[];autosize=1;strokeColor=none;fillColor=none;" vertex="1" parent="1">
          <mxGeometry y="1016" width="334" height="26" as="geometry" />
        </mxCell>
        <mxCell id="WFSwsWvmqa4uhrpM-cqG-14" value="&lt;font color=&quot;#000000&quot;&gt;&lt;b&gt;MÃDICO &lt;/b&gt;(&lt;u&gt;NSS_Emp&lt;/u&gt;,&amp;nbsp;&lt;/font&gt;&lt;span style=&quot;color: rgb(0, 0, 0);&quot;&gt;&lt;u&gt;DNI_Paciente&lt;/u&gt;,&lt;/span&gt;&lt;font color=&quot;#000000&quot;&gt;&amp;nbsp;Num_Pacientes)&lt;/font&gt;" style="text;html=1;align=center;verticalAlign=middle;resizable=0;points=[];autosize=1;strokeColor=none;fillColor=none;" vertex="1" parent="1">
          <mxGeometry y="1092" width="305" height="26" as="geometry" />
        </mxCell>
        <mxCell id="WFSwsWvmqa4uhrpM-cqG-15" value="&lt;b&gt;TRAUMATOLOGÃA&lt;/b&gt;&amp;nbsp;(&lt;u&gt;NSS_Emp_Med&lt;/u&gt;)" style="text;html=1;align=center;verticalAlign=middle;resizable=0;points=[];autosize=1;strokeColor=none;fillColor=none;fontColor=#000000;" vertex="1" parent="1">
          <mxGeometry y="1169" width="221" height="26" as="geometry" />
        </mxCell>
        <mxCell id="WFSwsWvmqa4uhrpM-cqG-16" value="&lt;b&gt;GINECOLOGÃA&lt;/b&gt;&amp;nbsp;(&lt;u&gt;NSS_Emp_Med&lt;/u&gt;)" style="text;html=1;align=center;verticalAlign=middle;resizable=0;points=[];autosize=1;strokeColor=none;fillColor=none;fontColor=#000000;" vertex="1" parent="1">
          <mxGeometry y="1246" width="201" height="26" as="geometry" />
        </mxCell>
        <mxCell id="WFSwsWvmqa4uhrpM-cqG-17" value="&lt;b&gt;CARDIOLOGÃA&amp;nbsp;&lt;/b&gt;(&lt;u&gt;NSS_Emp_Med&lt;/u&gt;)" style="text;html=1;align=center;verticalAlign=middle;resizable=0;points=[];autosize=1;strokeColor=none;fillColor=none;fontColor=#000000;" vertex="1" parent="1">
          <mxGeometry x="1" y="1334" width="200" height="26" as="geometry" />
        </mxCell>
        <mxCell id="WFSwsWvmqa4uhrpM-cqG-18" value="&lt;b&gt;MÃD.FAMILIA&amp;nbsp;&lt;/b&gt;(&lt;u&gt;NSS_Emp_Med&lt;/u&gt;)" style="text;html=1;align=center;verticalAlign=middle;resizable=0;points=[];autosize=1;strokeColor=none;fillColor=none;fontColor=#000000;" vertex="1" parent="1">
          <mxGeometry x="1" y="1423" width="193" height="26" as="geometry" />
        </mxCell>
        <mxCell id="WFSwsWvmqa4uhrpM-cqG-19" value="&lt;b&gt;ONCOLOGÃA&amp;nbsp;&lt;/b&gt;(&lt;u&gt;NSS_Emp_Med&lt;/u&gt;)" style="text;html=1;align=center;verticalAlign=middle;resizable=0;points=[];autosize=1;strokeColor=none;fillColor=none;fontColor=#000000;" vertex="1" parent="1">
          <mxGeometry y="1511" width="189" height="26" as="geometry" />
        </mxCell>
        <mxCell id="WFSwsWvmqa4uhrpM-cqG-20" value="&lt;b&gt;NECESITA &lt;/b&gt;(&lt;u&gt;NSS_Enfermero&lt;/u&gt;, &lt;u&gt;NSS_Med&lt;/u&gt;)" style="text;html=1;align=center;verticalAlign=middle;resizable=0;points=[];autosize=1;strokeColor=none;fillColor=none;fontColor=#000000;" vertex="1" parent="1">
          <mxGeometry x="1" y="1599" width="237" height="26" as="geometry" />
        </mxCell>
        <mxCell id="WFSwsWvmqa4uhrpM-cqG-21" value="&lt;b&gt;COMBINA_CON &lt;/b&gt;(&lt;u&gt;Etiquetado_Med1&lt;/u&gt;, &lt;u&gt;Etiquetado_Med2&lt;/u&gt;)" style="text;html=1;align=center;verticalAlign=middle;resizable=0;points=[];autosize=1;strokeColor=none;fillColor=none;fontColor=#000000;" vertex="1" parent="1">
          <mxGeometry x="1" y="1687" width="315" height="26" as="geometry" />
        </mxCell>
        <mxCell id="WFSwsWvmqa4uhrpM-cqG-22" value="&lt;b&gt;TRATAMIENTO&lt;/b&gt;&amp;nbsp;(DescripciÃ³n, DuraciÃ³n, &lt;u&gt;Etiquetado_Med&lt;/u&gt;, &lt;u&gt;NSS_Med&lt;/u&gt;, &lt;u&gt;DNI_Paciente&lt;/u&gt;)" style="text;html=1;align=center;verticalAlign=middle;resizable=0;points=[];autosize=1;strokeColor=none;fillColor=none;fontColor=#000000;" vertex="1" parent="1">
          <mxGeometry x="-1" y="1775" width="468" height="26" as="geometry" />
        </mxCell>
        <mxCell id="WFSwsWvmqa4uhrpM-cqG-23" value="&lt;b&gt;GRAVEDAD &lt;/b&gt;(Gravedad, &lt;u&gt;DNI_Paciente&lt;/u&gt;)" style="text;html=1;align=center;verticalAlign=middle;resizable=0;points=[];autosize=1;strokeColor=none;fillColor=none;fontColor=#000000;" vertex="1" parent="1">
          <mxGeometry x="3" y="1863" width="231" height="26" as="geometry" />
        </mxCell>
        <mxCell id="WFSwsWvmqa4uhrpM-cqG-24" value="&lt;b&gt;TURNO &lt;/b&gt;(Turno, &lt;u&gt;ID_Horario&lt;/u&gt;)" style="text;html=1;align=center;verticalAlign=middle;resizable=0;points=[];autosize=1;strokeColor=none;fillColor=none;fontColor=#000000;" vertex="1" parent="1">
          <mxGeometry x="2" y="1951" width="168" height="26" as="geometry" />
        </mxCell>
        <mxCell id="WFSwsWvmqa4uhrpM-cqG-25" value="&lt;font style=&quot;font-size: 10px;&quot; color=&quot;#000000&quot;&gt;PK&lt;/font&gt;" style="text;html=1;align=center;verticalAlign=middle;resizable=0;points=[];autosize=1;strokeColor=none;fillColor=none;fontSize=10;" vertex="1" parent="1">
          <mxGeometry x="85.5" y="77" width="31" height="24" as="geometry" />
        </mxCell>
        <mxCell id="WFSwsWvmqa4uhrpM-cqG-26" value="&lt;font style=&quot;font-size: 10px;&quot; color=&quot;#000000&quot;&gt;PK&lt;/font&gt;" style="text;html=1;align=center;verticalAlign=middle;resizable=0;points=[];autosize=1;strokeColor=none;fillColor=none;fontSize=10;" vertex="1" parent="1">
          <mxGeometry x="82" y="159" width="31" height="24" as="geometry" />
        </mxCell>
        <mxCell id="WFSwsWvmqa4uhrpM-cqG-27" value="&lt;font style=&quot;font-size: 10px;&quot; color=&quot;#000000&quot;&gt;PK&lt;/font&gt;" style="text;html=1;align=center;verticalAlign=middle;resizable=0;points=[];autosize=1;strokeColor=none;fillColor=none;fontSize=10;" vertex="1" parent="1">
          <mxGeometry x="85" y="237" width="31" height="24" as="geometry" />
        </mxCell>
        <mxCell id="WFSwsWvmqa4uhrpM-cqG-28" value="&lt;font style=&quot;font-size: 10px;&quot; color=&quot;#000000&quot;&gt;PK&lt;/font&gt;" style="text;html=1;align=center;verticalAlign=middle;resizable=0;points=[];autosize=1;strokeColor=none;fillColor=none;fontSize=10;" vertex="1" parent="1">
          <mxGeometry x="70" y="317" width="31" height="24" as="geometry" />
        </mxCell>
        <mxCell id="WFSwsWvmqa4uhrpM-cqG-29" value="&lt;font style=&quot;font-size: 10px;&quot; color=&quot;#000000&quot;&gt;PK&lt;/font&gt;" style="text;html=1;align=center;verticalAlign=middle;resizable=0;points=[];autosize=1;strokeColor=none;fillColor=none;" vertex="1" parent="1">
          <mxGeometry x="67" y="398" width="31" height="26" as="geometry" />
        </mxCell>
        <mxCell id="WFSwsWvmqa4uhrpM-cqG-30" value="&lt;font style=&quot;font-size: 10px;&quot; color=&quot;#000000&quot;&gt;PK&lt;/font&gt;" style="text;html=1;align=center;verticalAlign=middle;resizable=0;points=[];autosize=1;strokeColor=none;fillColor=none;" vertex="1" parent="1">
          <mxGeometry x="104" y="475" width="31" height="26" as="geometry" />
        </mxCell>
        <mxCell id="WFSwsWvmqa4uhrpM-cqG-31" value="&lt;font style=&quot;font-size: 10px;&quot; color=&quot;#000000&quot;&gt;AK&lt;sub style=&quot;font-size: 10px;&quot;&gt;1&lt;/sub&gt;&lt;/font&gt;" style="text;html=1;align=center;verticalAlign=middle;resizable=0;points=[];autosize=1;strokeColor=none;fillColor=none;fontSize=10;" vertex="1" parent="1">
          <mxGeometry x="96" y="555" width="37" height="27" as="geometry" />
        </mxCell>
        <mxCell id="WFSwsWvmqa4uhrpM-cqG-32" value="&lt;font style=&quot;font-size: 10px;&quot; color=&quot;#000000&quot;&gt;PK&lt;/font&gt;" style="text;html=1;align=center;verticalAlign=middle;resizable=0;points=[];autosize=1;strokeColor=none;fillColor=none;" vertex="1" parent="1">
          <mxGeometry x="159.5" y="572" width="31" height="26" as="geometry" />
        </mxCell>
        <mxCell id="WFSwsWvmqa4uhrpM-cqG-33" value="&lt;font style=&quot;font-size: 10px;&quot; color=&quot;#000000&quot;&gt;AK&lt;sub style=&quot;font-size: 10px;&quot;&gt;1&lt;/sub&gt;&lt;/font&gt;" style="text;html=1;align=center;verticalAlign=middle;resizable=0;points=[];autosize=1;strokeColor=none;fillColor=none;fontSize=10;" vertex="1" parent="1">
          <mxGeometry x="187" y="637" width="37" height="27" as="geometry" />
        </mxCell>
        <mxCell id="WFSwsWvmqa4uhrpM-cqG-34" value="&lt;font style=&quot;font-size: 10px;&quot; color=&quot;#000000&quot;&gt;PK&lt;/font&gt;" style="text;html=1;align=center;verticalAlign=middle;resizable=0;points=[];autosize=1;strokeColor=none;fillColor=none;" vertex="1" parent="1">
          <mxGeometry x="120" y="637" width="31" height="26" as="geometry" />
        </mxCell>
        <mxCell id="WFSwsWvmqa4uhrpM-cqG-35" value="&lt;font style=&quot;font-size: 10px;&quot; color=&quot;#000000&quot;&gt;PK&lt;/font&gt;" style="text;html=1;align=center;verticalAlign=middle;resizable=0;points=[];autosize=1;strokeColor=none;fillColor=none;" vertex="1" parent="1">
          <mxGeometry x="75" y="713" width="31" height="26" as="geometry" />
        </mxCell>
        <mxCell id="WFSwsWvmqa4uhrpM-cqG-36" value="&lt;font style=&quot;font-size: 10px;&quot; color=&quot;#000000&quot;&gt;PK&lt;/font&gt;" style="text;html=1;align=center;verticalAlign=middle;resizable=0;points=[];autosize=1;strokeColor=none;fillColor=none;" vertex="1" parent="1">
          <mxGeometry x="101" y="812" width="31" height="26" as="geometry" />
        </mxCell>
        <mxCell id="WFSwsWvmqa4uhrpM-cqG-37" value="&lt;font style=&quot;font-size: 10px;&quot; color=&quot;#000000&quot;&gt;PK&lt;/font&gt;" style="text;html=1;align=center;verticalAlign=middle;resizable=0;points=[];autosize=1;strokeColor=none;fillColor=none;" vertex="1" parent="1">
          <mxGeometry x="83.5" y="978" width="31" height="26" as="geometry" />
        </mxCell>
        <mxCell id="WFSwsWvmqa4uhrpM-cqG-39" value="&lt;font style=&quot;font-size: 10px;&quot; color=&quot;#000000&quot;&gt;PK&lt;/font&gt;" style="text;html=1;align=center;verticalAlign=middle;resizable=0;points=[];autosize=1;strokeColor=none;fillColor=none;" vertex="1" parent="1">
          <mxGeometry x="151.5" y="1050" width="31" height="26" as="geometry" />
        </mxCell>
        <mxCell id="WFSwsWvmqa4uhrpM-cqG-40" value="&lt;font style=&quot;font-size: 10px;&quot; color=&quot;#000000&quot;&gt;PK&lt;/font&gt;" style="text;html=1;align=center;verticalAlign=middle;resizable=0;points=[];autosize=1;strokeColor=none;fillColor=none;" vertex="1" parent="1">
          <mxGeometry x="116.5" y="1124" width="31" height="26" as="geometry" />
        </mxCell>
        <mxCell id="WFSwsWvmqa4uhrpM-cqG-41" value="&lt;font style=&quot;font-size: 10px;&quot; color=&quot;#000000&quot;&gt;PK&lt;/font&gt;" style="text;html=1;align=center;verticalAlign=middle;resizable=0;points=[];autosize=1;strokeColor=none;fillColor=none;" vertex="1" parent="1">
          <mxGeometry x="153.25" y="1204" width="31" height="26" as="geometry" />
        </mxCell>
        <mxCell id="WFSwsWvmqa4uhrpM-cqG-42" value="&lt;font style=&quot;font-size: 10px;&quot; color=&quot;#000000&quot;&gt;PK&lt;/font&gt;" style="text;html=1;align=center;verticalAlign=middle;resizable=0;points=[];autosize=1;strokeColor=none;fillColor=none;" vertex="1" parent="1">
          <mxGeometry x="131.75" y="1283" width="31" height="26" as="geometry" />
        </mxCell>
        <mxCell id="WFSwsWvmqa4uhrpM-cqG-43" value="&lt;font style=&quot;font-size: 10px;&quot; color=&quot;#000000&quot;&gt;PK&lt;/font&gt;" style="text;html=1;align=center;verticalAlign=middle;resizable=0;points=[];autosize=1;strokeColor=none;fillColor=none;" vertex="1" parent="1">
          <mxGeometry x="127" y="1370" width="31" height="26" as="geometry" />
        </mxCell>
        <mxCell id="WFSwsWvmqa4uhrpM-cqG-44" value="&lt;font style=&quot;font-size: 10px;&quot; color=&quot;#000000&quot;&gt;PK&lt;/font&gt;" style="text;html=1;align=center;verticalAlign=middle;resizable=0;points=[];autosize=1;strokeColor=none;fillColor=none;" vertex="1" parent="1">
          <mxGeometry x="122" y="1459" width="31" height="26" as="geometry" />
        </mxCell>
        <mxCell id="WFSwsWvmqa4uhrpM-cqG-45" value="&lt;font style=&quot;font-size: 10px;&quot; color=&quot;#000000&quot;&gt;PK&lt;/font&gt;" style="text;html=1;align=center;verticalAlign=middle;resizable=0;points=[];autosize=1;strokeColor=none;fillColor=none;" vertex="1" parent="1">
          <mxGeometry x="120" y="1546" width="31" height="26" as="geometry" />
        </mxCell>
        <mxCell id="WFSwsWvmqa4uhrpM-cqG-46" value="&lt;font style=&quot;font-size: 10px;&quot; color=&quot;#000000&quot;&gt;PK&lt;/font&gt;" style="text;html=1;align=center;verticalAlign=middle;resizable=0;points=[];autosize=1;strokeColor=none;fillColor=none;" vertex="1" parent="1">
          <mxGeometry x="135" y="1635" width="31" height="26" as="geometry" />
        </mxCell>
        <mxCell id="WFSwsWvmqa4uhrpM-cqG-47" value="&lt;font style=&quot;font-size: 10px;&quot; color=&quot;#000000&quot;&gt;PK&lt;/font&gt;" style="text;html=1;align=center;verticalAlign=middle;resizable=0;points=[];autosize=1;strokeColor=none;fillColor=none;" vertex="1" parent="1">
          <mxGeometry x="187" y="1721" width="31" height="26" as="geometry" />
        </mxCell>
        <mxCell id="WFSwsWvmqa4uhrpM-cqG-48" value="&lt;font style=&quot;font-size: 10px;&quot; color=&quot;#000000&quot;&gt;PK&lt;/font&gt;" style="text;html=1;align=center;verticalAlign=middle;resizable=0;points=[];autosize=1;strokeColor=none;fillColor=none;" vertex="1" parent="1">
          <mxGeometry x="334" y="1812" width="31" height="26" as="geometry" />
        </mxCell>
        <mxCell id="WFSwsWvmqa4uhrpM-cqG-49" value="&lt;font style=&quot;font-size: 10px;&quot; color=&quot;#000000&quot;&gt;PK&lt;/font&gt;" style="text;html=1;align=center;verticalAlign=middle;resizable=0;points=[];autosize=1;strokeColor=none;fillColor=none;" vertex="1" parent="1">
          <mxGeometry x="140" y="1897" width="31" height="26" as="geometry" />
        </mxCell>
        <mxCell id="WFSwsWvmqa4uhrpM-cqG-50" value="&lt;font style=&quot;font-size: 10px;&quot; color=&quot;#000000&quot;&gt;PK&lt;/font&gt;" style="text;html=1;align=center;verticalAlign=middle;resizable=0;points=[];autosize=1;strokeColor=none;fillColor=none;" vertex="1" parent="1">
          <mxGeometry x="93" y="1988" width="31" height="26" as="geometry" />
        </mxCell>
        <mxCell id="WFSwsWvmqa4uhrpM-cqG-51" value="&lt;font color=&quot;#000000&quot; style=&quot;font-size: 10px;&quot;&gt;FK&lt;sub&gt;1&lt;/sub&gt;&lt;/font&gt;" style="text;html=1;align=center;verticalAlign=middle;resizable=0;points=[];autosize=1;strokeColor=none;fillColor=none;" vertex="1" parent="1">
          <mxGeometry x="108" y="1968" width="35" height="29" as="geometry" />
        </mxCell>
        <mxCell id="WFSwsWvmqa4uhrpM-cqG-52" value="" style="endArrow=none;html=1;rounded=0;fontColor=#000000;labelBorderColor=#000000;strokeColor=#000000;" edge="1" parent="1">
          <mxGeometry width="50" height="50" relative="1" as="geometry">
            <mxPoint x="62.5" y="1992" as="sourcePoint" />
            <mxPoint x="160" y="1992" as="targetPoint" />
          </mxGeometry>
        </mxCell>
        <mxCell id="WFSwsWvmqa4uhrpM-cqG-54" value="" style="endArrow=none;html=1;rounded=0;fontColor=#000000;labelBorderColor=#000000;strokeColor=#000000;" edge="1" parent="1">
          <mxGeometry width="50" height="50" relative="1" as="geometry">
            <mxPoint x="85.5" y="1902" as="sourcePoint" />
            <mxPoint x="225" y="1902" as="targetPoint" />
          </mxGeometry>
        </mxCell>
        <mxCell id="WFSwsWvmqa4uhrpM-cqG-55" value="&lt;font color=&quot;#000000&quot; style=&quot;font-size: 10px;&quot;&gt;FK&lt;sub&gt;1&lt;/sub&gt;&lt;/font&gt;" style="text;html=1;align=center;verticalAlign=middle;resizable=0;points=[];autosize=1;strokeColor=none;fillColor=none;" vertex="1" parent="1">
          <mxGeometry x="166" y="1879" width="35" height="29" as="geometry" />
        </mxCell>
        <mxCell id="WFSwsWvmqa4uhrpM-cqG-56" value="" style="endArrow=none;html=1;rounded=0;fontColor=#000000;labelBorderColor=#000000;strokeColor=#000000;" edge="1" parent="1">
          <mxGeometry width="50" height="50" relative="1" as="geometry">
            <mxPoint x="227" y="1815" as="sourcePoint" />
            <mxPoint x="458" y="1815" as="targetPoint" />
          </mxGeometry>
        </mxCell>
        <mxCell id="WFSwsWvmqa4uhrpM-cqG-57" value="&lt;font color=&quot;#000000&quot; style=&quot;font-size: 10px;&quot;&gt;FK&lt;sub&gt;1&lt;/sub&gt;&lt;/font&gt;" style="text;html=1;align=center;verticalAlign=middle;resizable=0;points=[];autosize=1;strokeColor=none;fillColor=none;" vertex="1" parent="1">
          <mxGeometry x="253" y="1790" width="35" height="29" as="geometry" />
        </mxCell>
        <mxCell id="WFSwsWvmqa4uhrpM-cqG-58" value="&lt;font style=&quot;font-size: 10px;&quot; color=&quot;#000000&quot;&gt;FK&lt;/font&gt;&lt;font size=&quot;1&quot; style=&quot;&quot; color=&quot;#000000&quot;&gt;&lt;sub&gt;2&lt;/sub&gt;&lt;/font&gt;" style="text;html=1;align=center;verticalAlign=middle;resizable=0;points=[];autosize=1;strokeColor=none;fillColor=none;" vertex="1" parent="1">
          <mxGeometry x="334" y="1790" width="35" height="29" as="geometry" />
        </mxCell>
        <mxCell id="WFSwsWvmqa4uhrpM-cqG-59" value="&lt;font color=&quot;#000000&quot; style=&quot;font-size: 10px;&quot;&gt;FK&lt;sub&gt;1&lt;/sub&gt;&lt;/font&gt;" style="text;html=1;align=center;verticalAlign=middle;resizable=0;points=[];autosize=1;strokeColor=none;fillColor=none;" vertex="1" parent="1">
          <mxGeometry x="133" y="1699" width="35" height="29" as="geometry" />
        </mxCell>
        <mxCell id="WFSwsWvmqa4uhrpM-cqG-60" value="&lt;font style=&quot;font-size: 10px;&quot; color=&quot;#000000&quot;&gt;FK&lt;/font&gt;&lt;font size=&quot;1&quot; style=&quot;&quot; color=&quot;#000000&quot;&gt;&lt;sub&gt;2&lt;/sub&gt;&lt;/font&gt;" style="text;html=1;align=center;verticalAlign=middle;resizable=0;points=[];autosize=1;strokeColor=none;fillColor=none;" vertex="1" parent="1">
          <mxGeometry x="238" y="1699" width="35" height="29" as="geometry" />
        </mxCell>
        <mxCell id="WFSwsWvmqa4uhrpM-cqG-61" value="" style="endArrow=none;html=1;rounded=0;fontColor=#000000;labelBorderColor=#000000;strokeColor=#000000;" edge="1" parent="1">
          <mxGeometry width="50" height="50" relative="1" as="geometry">
            <mxPoint x="104" y="1724" as="sourcePoint" />
            <mxPoint x="308" y="1724" as="targetPoint" />
          </mxGeometry>
        </mxCell>
        <mxCell id="WFSwsWvmqa4uhrpM-cqG-62" value="&lt;font style=&quot;font-size: 10px;&quot; color=&quot;#000000&quot;&gt;FK&lt;/font&gt;&lt;font style=&quot;font-size: 8.33333px;&quot; color=&quot;#000000&quot;&gt;3&lt;/font&gt;" style="text;html=1;align=center;verticalAlign=middle;resizable=0;points=[];autosize=1;strokeColor=none;fillColor=none;" vertex="1" parent="1">
          <mxGeometry x="410" y="1792" width="35" height="26" as="geometry" />
        </mxCell>
        <mxCell id="WFSwsWvmqa4uhrpM-cqG-63" value="" style="endArrow=none;html=1;rounded=0;fontColor=#000000;labelBorderColor=#000000;strokeColor=#000000;" edge="1" parent="1">
          <mxGeometry width="50" height="50" relative="1" as="geometry">
            <mxPoint x="76" y="1639" as="sourcePoint" />
            <mxPoint x="236" y="1639" as="targetPoint" />
          </mxGeometry>
        </mxCell>
        <mxCell id="WFSwsWvmqa4uhrpM-cqG-64" value="&lt;font color=&quot;#000000&quot; style=&quot;font-size: 10px;&quot;&gt;FK&lt;sub&gt;1&lt;/sub&gt;&lt;/font&gt;" style="text;html=1;align=center;verticalAlign=middle;resizable=0;points=[];autosize=1;strokeColor=none;fillColor=none;" vertex="1" parent="1">
          <mxGeometry x="111" y="1613" width="35" height="29" as="geometry" />
        </mxCell>
        <mxCell id="WFSwsWvmqa4uhrpM-cqG-66" value="&lt;font style=&quot;font-size: 10px;&quot; color=&quot;#000000&quot;&gt;FK&lt;/font&gt;&lt;font size=&quot;1&quot; style=&quot;&quot; color=&quot;#000000&quot;&gt;&lt;sub&gt;2&lt;/sub&gt;&lt;/font&gt;" style="text;html=1;align=center;verticalAlign=middle;resizable=0;points=[];autosize=1;strokeColor=none;fillColor=none;" vertex="1" parent="1">
          <mxGeometry x="179" y="1613" width="35" height="29" as="geometry" />
        </mxCell>
        <mxCell id="WFSwsWvmqa4uhrpM-cqG-68" value="&lt;font color=&quot;#000000&quot; style=&quot;font-size: 10px;&quot;&gt;FK&lt;sub&gt;1&lt;/sub&gt;&lt;/font&gt;" style="text;html=1;align=center;verticalAlign=middle;resizable=0;points=[];autosize=1;strokeColor=none;fillColor=none;" vertex="1" parent="1">
          <mxGeometry x="118" y="1526" width="35" height="29" as="geometry" />
        </mxCell>
        <mxCell id="WFSwsWvmqa4uhrpM-cqG-69" value="" style="endArrow=none;html=1;rounded=0;fontColor=#000000;labelBorderColor=#000000;strokeColor=#000000;" edge="1" parent="1">
          <mxGeometry width="50" height="50" relative="1" as="geometry">
            <mxPoint x="85.5" y="1550" as="sourcePoint" />
            <mxPoint x="183" y="1550" as="targetPoint" />
          </mxGeometry>
        </mxCell>
        <mxCell id="WFSwsWvmqa4uhrpM-cqG-71" value="&lt;font color=&quot;#000000&quot; style=&quot;font-size: 10px;&quot;&gt;FK&lt;sub&gt;1&lt;/sub&gt;&lt;/font&gt;" style="text;html=1;align=center;verticalAlign=middle;resizable=0;points=[];autosize=1;strokeColor=none;fillColor=none;" vertex="1" parent="1">
          <mxGeometry x="120" y="1438" width="35" height="29" as="geometry" />
        </mxCell>
        <mxCell id="WFSwsWvmqa4uhrpM-cqG-72" value="" style="endArrow=none;html=1;rounded=0;fontColor=#000000;labelBorderColor=#000000;strokeColor=#000000;" edge="1" parent="1">
          <mxGeometry width="50" height="50" relative="1" as="geometry">
            <mxPoint x="86.75" y="1463" as="sourcePoint" />
            <mxPoint x="184.25" y="1463" as="targetPoint" />
          </mxGeometry>
        </mxCell>
        <mxCell id="WFSwsWvmqa4uhrpM-cqG-73" value="&lt;font color=&quot;#000000&quot; style=&quot;font-size: 10px;&quot;&gt;FK&lt;sub&gt;1&lt;/sub&gt;&lt;/font&gt;" style="text;html=1;align=center;verticalAlign=middle;resizable=0;points=[];autosize=1;strokeColor=none;fillColor=none;" vertex="1" parent="1">
          <mxGeometry x="125" y="1349" width="35" height="29" as="geometry" />
        </mxCell>
        <mxCell id="WFSwsWvmqa4uhrpM-cqG-74" value="" style="endArrow=none;html=1;rounded=0;fontColor=#000000;labelBorderColor=#000000;strokeColor=#000000;" edge="1" parent="1">
          <mxGeometry width="50" height="50" relative="1" as="geometry">
            <mxPoint x="91.75" y="1374" as="sourcePoint" />
            <mxPoint x="189.25" y="1374" as="targetPoint" />
          </mxGeometry>
        </mxCell>
        <mxCell id="WFSwsWvmqa4uhrpM-cqG-75" value="&lt;font color=&quot;#000000&quot; style=&quot;font-size: 10px;&quot;&gt;FK&lt;sub&gt;1&lt;/sub&gt;&lt;/font&gt;" style="text;html=1;align=center;verticalAlign=middle;resizable=0;points=[];autosize=1;strokeColor=none;fillColor=none;" vertex="1" parent="1">
          <mxGeometry x="129.75" y="1260" width="35" height="29" as="geometry" />
        </mxCell>
        <mxCell id="WFSwsWvmqa4uhrpM-cqG-76" value="" style="endArrow=none;html=1;rounded=0;fontColor=#000000;labelBorderColor=#000000;strokeColor=#000000;" edge="1" parent="1">
          <mxGeometry width="50" height="50" relative="1" as="geometry">
            <mxPoint x="96.5" y="1285" as="sourcePoint" />
            <mxPoint x="194" y="1285" as="targetPoint" />
          </mxGeometry>
        </mxCell>
        <mxCell id="WFSwsWvmqa4uhrpM-cqG-77" value="&lt;font color=&quot;#000000&quot; style=&quot;font-size: 10px;&quot;&gt;FK&lt;sub&gt;1&lt;/sub&gt;&lt;/font&gt;" style="text;html=1;align=center;verticalAlign=middle;resizable=0;points=[];autosize=1;strokeColor=none;fillColor=none;" vertex="1" parent="1">
          <mxGeometry x="151.25" y="1182" width="35" height="29" as="geometry" />
        </mxCell>
        <mxCell id="WFSwsWvmqa4uhrpM-cqG-78" value="" style="endArrow=none;html=1;rounded=0;fontColor=#000000;labelBorderColor=#000000;strokeColor=#000000;" edge="1" parent="1">
          <mxGeometry width="50" height="50" relative="1" as="geometry">
            <mxPoint x="118" y="1207" as="sourcePoint" />
            <mxPoint x="215.5" y="1207" as="targetPoint" />
          </mxGeometry>
        </mxCell>
        <mxCell id="WFSwsWvmqa4uhrpM-cqG-79" value="&lt;font color=&quot;#000000&quot; style=&quot;font-size: 10px;&quot;&gt;FK&lt;sub&gt;1&lt;/sub&gt;&lt;/font&gt;" style="text;html=1;align=center;verticalAlign=middle;resizable=0;points=[];autosize=1;strokeColor=none;fillColor=none;" vertex="1" parent="1">
          <mxGeometry x="73" y="1105" width="35" height="29" as="geometry" />
        </mxCell>
        <mxCell id="WFSwsWvmqa4uhrpM-cqG-80" value="&lt;font color=&quot;#000000&quot; style=&quot;font-size: 10px;&quot;&gt;FK&lt;/font&gt;&lt;font color=&quot;#000000&quot; style=&quot;font-size: 8.33333px;&quot;&gt;2&lt;/font&gt;" style="text;html=1;align=center;verticalAlign=middle;resizable=0;points=[];autosize=1;strokeColor=none;fillColor=none;" vertex="1" parent="1">
          <mxGeometry x="149.25" y="1107" width="35" height="26" as="geometry" />
        </mxCell>
        <mxCell id="WFSwsWvmqa4uhrpM-cqG-81" value="" style="endArrow=none;html=1;rounded=0;fontColor=#000000;labelBorderColor=#000000;strokeColor=#000000;" edge="1" parent="1">
          <mxGeometry width="50" height="50" relative="1" as="geometry">
            <mxPoint x="64.75" y="1129" as="sourcePoint" />
            <mxPoint x="203" y="1129" as="targetPoint" />
          </mxGeometry>
        </mxCell>
        <mxCell id="WFSwsWvmqa4uhrpM-cqG-82" value="&lt;font color=&quot;#000000&quot; style=&quot;font-size: 10px;&quot;&gt;FK&lt;sub&gt;1&lt;/sub&gt;&lt;/font&gt;" style="text;html=1;align=center;verticalAlign=middle;resizable=0;points=[];autosize=1;strokeColor=none;fillColor=none;" vertex="1" parent="1">
          <mxGeometry x="105.88" y="1029" width="35" height="29" as="geometry" />
        </mxCell>
        <mxCell id="WFSwsWvmqa4uhrpM-cqG-83" value="&lt;font color=&quot;#000000&quot; style=&quot;font-size: 10px;&quot;&gt;FK&lt;/font&gt;&lt;font color=&quot;#000000&quot; style=&quot;font-size: 8.33333px;&quot;&gt;2&lt;/font&gt;" style="text;html=1;align=center;verticalAlign=middle;resizable=0;points=[];autosize=1;strokeColor=none;fillColor=none;" vertex="1" parent="1">
          <mxGeometry x="182.13" y="1031" width="35" height="26" as="geometry" />
        </mxCell>
        <mxCell id="WFSwsWvmqa4uhrpM-cqG-84" value="" style="endArrow=none;html=1;rounded=0;fontColor=#000000;labelBorderColor=#000000;strokeColor=#000000;" edge="1" parent="1">
          <mxGeometry width="50" height="50" relative="1" as="geometry">
            <mxPoint x="97.63" y="1053" as="sourcePoint" />
            <mxPoint x="235.88" y="1053" as="targetPoint" />
          </mxGeometry>
        </mxCell>
        <mxCell id="WFSwsWvmqa4uhrpM-cqG-85" value="&lt;font color=&quot;#000000&quot; style=&quot;font-size: 10px;&quot;&gt;FK&lt;sub&gt;1&lt;/sub&gt;&lt;/font&gt;" style="text;html=1;align=center;verticalAlign=middle;resizable=0;points=[];autosize=1;strokeColor=none;fillColor=none;" vertex="1" parent="1">
          <mxGeometry x="81.5" y="954" width="35" height="29" as="geometry" />
        </mxCell>
        <mxCell id="WFSwsWvmqa4uhrpM-cqG-86" value="&lt;font color=&quot;#000000&quot; style=&quot;font-size: 10px;&quot;&gt;FK&lt;sub&gt;1&lt;/sub&gt;&lt;/font&gt;" style="text;html=1;align=center;verticalAlign=middle;resizable=0;points=[];autosize=1;strokeColor=none;fillColor=none;" vertex="1" parent="1">
          <mxGeometry x="130" y="876" width="35" height="29" as="geometry" />
        </mxCell>
        <mxCell id="WFSwsWvmqa4uhrpM-cqG-87" value="&lt;font color=&quot;#000000&quot; style=&quot;font-size: 10px;&quot;&gt;FK&lt;sub&gt;1&lt;/sub&gt;&lt;/font&gt;" style="text;html=1;align=center;verticalAlign=middle;resizable=0;points=[];autosize=1;strokeColor=none;fillColor=none;" vertex="1" parent="1">
          <mxGeometry x="80" y="793.5" width="35" height="29" as="geometry" />
        </mxCell>
        <mxCell id="WFSwsWvmqa4uhrpM-cqG-88" value="&lt;font color=&quot;#000000&quot; style=&quot;font-size: 10px;&quot;&gt;FK&lt;/font&gt;&lt;font color=&quot;#000000&quot; style=&quot;font-size: 8.33333px;&quot;&gt;2&lt;/font&gt;" style="text;html=1;align=center;verticalAlign=middle;resizable=0;points=[];autosize=1;strokeColor=none;fillColor=none;" vertex="1" parent="1">
          <mxGeometry x="122" y="795" width="35" height="26" as="geometry" />
        </mxCell>
        <mxCell id="WFSwsWvmqa4uhrpM-cqG-89" value="" style="endArrow=none;html=1;rounded=0;fontColor=#000000;labelBorderColor=#000000;strokeColor=#000000;" edge="1" parent="1">
          <mxGeometry width="50" height="50" relative="1" as="geometry">
            <mxPoint x="70.5" y="980" as="sourcePoint" />
            <mxPoint x="128" y="980" as="targetPoint" />
          </mxGeometry>
        </mxCell>
        <mxCell id="WFSwsWvmqa4uhrpM-cqG-90" value="" style="endArrow=none;html=1;rounded=0;fontColor=#000000;labelBorderColor=#000000;strokeColor=#000000;" edge="1" parent="1">
          <mxGeometry width="50" height="50" relative="1" as="geometry">
            <mxPoint x="120" y="900" as="sourcePoint" />
            <mxPoint x="177.5" y="900" as="targetPoint" />
          </mxGeometry>
        </mxCell>
        <mxCell id="WFSwsWvmqa4uhrpM-cqG-91" value="" style="endArrow=none;html=1;rounded=0;fontColor=#000000;labelBorderColor=#000000;strokeColor=#000000;" edge="1" parent="1">
          <mxGeometry width="50" height="50" relative="1" as="geometry">
            <mxPoint x="77.5" y="816" as="sourcePoint" />
            <mxPoint x="148" y="816" as="targetPoint" />
          </mxGeometry>
        </mxCell>
        <mxCell id="WFSwsWvmqa4uhrpM-cqG-93" value="&lt;font style=&quot;font-size: 10px;&quot; color=&quot;#000000&quot;&gt;PK&lt;/font&gt;" style="text;html=1;align=center;verticalAlign=middle;resizable=0;points=[];autosize=1;strokeColor=none;fillColor=none;" vertex="1" parent="1">
          <mxGeometry x="133" y="896" width="31" height="26" as="geometry" />
        </mxCell>
        <mxCell id="WFSwsWvmqa4uhrpM-cqG-94" value="&lt;font color=&quot;#000000&quot; style=&quot;font-size: 10px;&quot;&gt;FK&lt;sub&gt;1&lt;/sub&gt;&lt;/font&gt;" style="text;html=1;align=center;verticalAlign=middle;resizable=0;points=[];autosize=1;strokeColor=none;fillColor=none;" vertex="1" parent="1">
          <mxGeometry x="336" y="711.5" width="35" height="29" as="geometry" />
        </mxCell>
        <mxCell id="WFSwsWvmqa4uhrpM-cqG-95" value="&lt;font color=&quot;#000000&quot; style=&quot;font-size: 10px;&quot;&gt;FK&lt;sub style=&quot;font-size: 10px;&quot;&gt;1&lt;/sub&gt;&lt;/font&gt;" style="text;html=1;align=center;verticalAlign=middle;resizable=0;points=[];autosize=1;strokeColor=none;fillColor=none;fontSize=10;" vertex="1" parent="1">
          <mxGeometry x="156" y="556" width="36" height="27" as="geometry" />
        </mxCell>
        <mxCell id="WFSwsWvmqa4uhrpM-cqG-96" value="" style="endArrow=none;html=1;rounded=0;fontColor=#000000;labelBorderColor=#000000;strokeColor=#000000;" edge="1" parent="1">
          <mxGeometry width="50" height="50" relative="1" as="geometry">
            <mxPoint x="147.5" y="576" as="sourcePoint" />
            <mxPoint x="201" y="576" as="targetPoint" />
          </mxGeometry>
        </mxCell>
        <mxCell id="WFSwsWvmqa4uhrpM-cqG-97" value="&lt;font color=&quot;#000000&quot; style=&quot;font-size: 10px;&quot;&gt;FK&lt;/font&gt;&lt;font color=&quot;#000000&quot; style=&quot;font-size: 8.33333px;&quot;&gt;2&lt;/font&gt;" style="text;html=1;align=center;verticalAlign=middle;resizable=0;points=[];autosize=1;strokeColor=none;fillColor=none;" vertex="1" parent="1">
          <mxGeometry x="234" y="555" width="35" height="26" as="geometry" />
        </mxCell>
        <mxCell id="WFSwsWvmqa4uhrpM-cqG-98" value="&lt;font color=&quot;#000000&quot; style=&quot;font-size: 10px;&quot;&gt;FK&lt;sub&gt;1&lt;/sub&gt;&lt;/font&gt;" style="text;html=1;align=center;verticalAlign=middle;resizable=0;points=[];autosize=1;strokeColor=none;fillColor=none;" vertex="1" parent="1">
          <mxGeometry x="164.75" y="473.5" width="35" height="29" as="geometry" />
        </mxCell>
        <mxCell id="WFSwsWvmqa4uhrpM-cqG-99" value="&lt;font color=&quot;#000000&quot; style=&quot;font-size: 10px;&quot;&gt;FK&lt;sub style=&quot;font-size: 10px;&quot;&gt;1&lt;/sub&gt;&lt;/font&gt;" style="text;html=1;align=center;verticalAlign=middle;resizable=0;points=[];autosize=1;strokeColor=none;fillColor=none;fontSize=10;" vertex="1" parent="1">
          <mxGeometry x="108" y="317" width="36" height="27" as="geometry" />
        </mxCell>
        <mxCell id="WFSwsWvmqa4uhrpM-cqG-100" value="&lt;font color=&quot;#000000&quot; style=&quot;font-size: 10px;&quot;&gt;FK&lt;sub style=&quot;font-size: 10px;&quot;&gt;1&lt;/sub&gt;&lt;/font&gt;" style="text;html=1;align=center;verticalAlign=middle;resizable=0;points=[];autosize=1;strokeColor=none;fillColor=none;fontSize=10;" vertex="1" parent="1">
          <mxGeometry x="151.5" y="157.5" width="36" height="27" as="geometry" />
        </mxCell>
        <mxCell id="WFSwsWvmqa4uhrpM-cqG-101" value="&lt;font color=&quot;#000000&quot; style=&quot;font-size: 10px;&quot;&gt;FK&lt;sub style=&quot;font-size: 10px;&quot;&gt;1&lt;/sub&gt;&lt;/font&gt;" style="text;html=1;align=center;verticalAlign=middle;resizable=0;points=[];autosize=1;strokeColor=none;fillColor=none;fontSize=10;" vertex="1" parent="1">
          <mxGeometry x="201" y="77" width="36" height="27" as="geometry" />
        </mxCell>
        <mxCell id="WFSwsWvmqa4uhrpM-cqG-104" value="&lt;font color=&quot;#000000&quot; style=&quot;font-size: 10px;&quot;&gt;FK&lt;/font&gt;&lt;font color=&quot;#000000&quot; style=&quot;font-size: 8.33333px;&quot;&gt;2&lt;/font&gt;" style="text;html=1;align=center;verticalAlign=middle;resizable=0;points=[];autosize=1;strokeColor=none;fillColor=none;" vertex="1" parent="1">
          <mxGeometry x="221" y="157" width="35" height="26" as="geometry" />
        </mxCell>
        <mxCell id="WFSwsWvmqa4uhrpM-cqG-106" value="" style="endArrow=classic;html=1;rounded=0;strokeColor=#000000;" edge="1" parent="1">
          <mxGeometry width="50" height="50" relative="1" as="geometry">
            <mxPoint x="101.25" y="145" as="sourcePoint" />
            <mxPoint x="196" y="97" as="targetPoint" />
          </mxGeometry>
        </mxCell>
        <mxCell id="WFSwsWvmqa4uhrpM-cqG-108" value="" style="endArrow=none;html=1;rounded=0;strokeColor=#000000;" edge="1" parent="1">
          <mxGeometry width="50" height="50" relative="1" as="geometry">
            <mxPoint x="169.5" y="210.5" as="sourcePoint" />
            <mxPoint x="169" y="178" as="targetPoint" />
          </mxGeometry>
        </mxCell>
        <mxCell id="WFSwsWvmqa4uhrpM-cqG-109" value="" style="endArrow=none;html=1;rounded=0;strokeColor=#000000;" edge="1" parent="1">
          <mxGeometry width="50" height="50" relative="1" as="geometry">
            <mxPoint x="397" y="210" as="sourcePoint" />
            <mxPoint x="168" y="210" as="targetPoint" />
          </mxGeometry>
        </mxCell>
        <mxCell id="WFSwsWvmqa4uhrpM-cqG-110" value="" style="endArrow=none;html=1;rounded=0;strokeColor=#000000;" edge="1" parent="1">
          <mxGeometry width="50" height="50" relative="1" as="geometry">
            <mxPoint x="399" y="511" as="sourcePoint" />
            <mxPoint x="399" y="210" as="targetPoint" />
          </mxGeometry>
        </mxCell>
        <mxCell id="WFSwsWvmqa4uhrpM-cqG-112" value="" style="endArrow=classic;html=1;rounded=0;strokeColor=#000000;" edge="1" parent="1">
          <mxGeometry width="50" height="50" relative="1" as="geometry">
            <mxPoint x="399" y="511" as="sourcePoint" />
            <mxPoint x="141" y="495" as="targetPoint" />
          </mxGeometry>
        </mxCell>
        <mxCell id="WFSwsWvmqa4uhrpM-cqG-113" value="" style="endArrow=classic;html=1;rounded=0;strokeColor=#000000;exitX=0.166;exitY=1.008;exitDx=0;exitDy=0;exitPerimeter=0;" edge="1" parent="1" source="WFSwsWvmqa4uhrpM-cqG-104">
          <mxGeometry width="50" height="50" relative="1" as="geometry">
            <mxPoint x="169.5" y="171" as="sourcePoint" />
            <mxPoint x="101.5" y="229.5" as="targetPoint" />
          </mxGeometry>
        </mxCell>
        <mxCell id="WFSwsWvmqa4uhrpM-cqG-114" value="" style="endArrow=classic;html=1;rounded=0;strokeColor=#000000;" edge="1" parent="1">
          <mxGeometry width="50" height="50" relative="1" as="geometry">
            <mxPoint x="138.75" y="310.5" as="sourcePoint" />
            <mxPoint x="115" y="253" as="targetPoint" />
            <Array as="points">
              <mxPoint x="126.75" y="279.5" />
            </Array>
          </mxGeometry>
        </mxCell>
        <mxCell id="WFSwsWvmqa4uhrpM-cqG-115" value="" style="endArrow=classic;html=1;rounded=0;strokeColor=#000000;entryX=0.974;entryY=0.631;entryDx=0;entryDy=0;entryPerimeter=0;" edge="1" parent="1" target="WFSwsWvmqa4uhrpM-cqG-29">
          <mxGeometry width="50" height="50" relative="1" as="geometry">
            <mxPoint x="179" y="467.5" as="sourcePoint" />
            <mxPoint x="155" y="406" as="targetPoint" />
            <Array as="points">
              <mxPoint x="167" y="436.5" />
            </Array>
          </mxGeometry>
        </mxCell>
        <mxCell id="WFSwsWvmqa4uhrpM-cqG-116" value="" style="endArrow=classic;html=1;rounded=0;strokeColor=#000000;" edge="1" parent="1">
          <mxGeometry width="50" height="50" relative="1" as="geometry">
            <mxPoint x="153.5" y="549.5" as="sourcePoint" />
            <mxPoint x="129.75" y="492" as="targetPoint" />
            <Array as="points">
              <mxPoint x="141.5" y="518.5" />
            </Array>
          </mxGeometry>
        </mxCell>
        <mxCell id="WFSwsWvmqa4uhrpM-cqG-118" value="" style="endArrow=classic;html=1;rounded=0;strokeColor=#000000;entryX=0.672;entryY=0.192;entryDx=0;entryDy=0;entryPerimeter=0;" edge="1" parent="1" target="WFSwsWvmqa4uhrpM-cqG-8">
          <mxGeometry width="50" height="50" relative="1" as="geometry">
            <mxPoint x="224.5" y="566" as="sourcePoint" />
            <mxPoint x="182.5" y="614" as="targetPoint" />
          </mxGeometry>
        </mxCell>
        <mxCell id="WFSwsWvmqa4uhrpM-cqG-119" value="" style="endArrow=none;html=1;rounded=0;strokeColor=#000000;" edge="1" parent="1">
          <mxGeometry width="50" height="50" relative="1" as="geometry">
            <mxPoint x="343" y="699" as="sourcePoint" />
            <mxPoint x="343" y="398" as="targetPoint" />
          </mxGeometry>
        </mxCell>
        <mxCell id="WFSwsWvmqa4uhrpM-cqG-120" value="" style="endArrow=classic;html=1;rounded=0;strokeColor=#000000;entryX=1;entryY=0.56;entryDx=0;entryDy=0;entryPerimeter=0;" edge="1" parent="1" target="WFSwsWvmqa4uhrpM-cqG-5">
          <mxGeometry width="50" height="50" relative="1" as="geometry">
            <mxPoint x="343" y="398" as="sourcePoint" />
            <mxPoint x="393" y="348" as="targetPoint" />
          </mxGeometry>
        </mxCell>
        <mxCell id="WFSwsWvmqa4uhrpM-cqG-121" value="" style="endArrow=classic;html=1;rounded=0;strokeColor=#000000;entryX=1;entryY=0.638;entryDx=0;entryDy=0;entryPerimeter=0;" edge="1" parent="1" target="WFSwsWvmqa4uhrpM-cqG-35">
          <mxGeometry width="50" height="50" relative="1" as="geometry">
            <mxPoint x="139" y="786" as="sourcePoint" />
            <mxPoint x="189" y="736" as="targetPoint" />
          </mxGeometry>
        </mxCell>
        <mxCell id="WFSwsWvmqa4uhrpM-cqG-122" value="" style="endArrow=none;html=1;rounded=0;strokeColor=#000000;" edge="1" parent="1">
          <mxGeometry width="50" height="50" relative="1" as="geometry">
            <mxPoint x="196" y="883" as="sourcePoint" />
            <mxPoint x="606" y="883" as="targetPoint" />
          </mxGeometry>
        </mxCell>
        <mxCell id="WFSwsWvmqa4uhrpM-cqG-123" value="" style="endArrow=none;html=1;rounded=0;strokeColor=#000000;" edge="1" parent="1">
          <mxGeometry width="50" height="50" relative="1" as="geometry">
            <mxPoint x="607" y="883" as="sourcePoint" />
            <mxPoint x="607" y="262" as="targetPoint" />
          </mxGeometry>
        </mxCell>
        <mxCell id="WFSwsWvmqa4uhrpM-cqG-125" value="" style="endArrow=classic;html=1;rounded=0;strokeColor=#000000;entryX=0.333;entryY=0.907;entryDx=0;entryDy=0;entryPerimeter=0;" edge="1" parent="1" target="WFSwsWvmqa4uhrpM-cqG-3">
          <mxGeometry width="50" height="50" relative="1" as="geometry">
            <mxPoint x="607" y="261" as="sourcePoint" />
            <mxPoint x="657" y="211" as="targetPoint" />
          </mxGeometry>
        </mxCell>
        <mxCell id="WFSwsWvmqa4uhrpM-cqG-126" value="" style="endArrow=none;html=1;rounded=0;strokeColor=#000000;" edge="1" parent="1">
          <mxGeometry width="50" height="50" relative="1" as="geometry">
            <mxPoint x="138" y="954" as="sourcePoint" />
            <mxPoint x="635" y="954" as="targetPoint" />
          </mxGeometry>
        </mxCell>
        <mxCell id="WFSwsWvmqa4uhrpM-cqG-127" value="" style="endArrow=none;html=1;rounded=0;strokeColor=#000000;" edge="1" parent="1">
          <mxGeometry width="50" height="50" relative="1" as="geometry">
            <mxPoint x="634" y="957" as="sourcePoint" />
            <mxPoint x="634" y="336" as="targetPoint" />
          </mxGeometry>
        </mxCell>
        <mxCell id="WFSwsWvmqa4uhrpM-cqG-128" value="" style="endArrow=classic;html=1;rounded=0;strokeColor=#000000;" edge="1" parent="1">
          <mxGeometry width="50" height="50" relative="1" as="geometry">
            <mxPoint x="634" y="336" as="sourcePoint" />
            <mxPoint x="121" y="255" as="targetPoint" />
          </mxGeometry>
        </mxCell>
        <mxCell id="WFSwsWvmqa4uhrpM-cqG-129" value="" style="endArrow=none;html=1;rounded=0;strokeColor=#000000;" edge="1" parent="1">
          <mxGeometry width="50" height="50" relative="1" as="geometry">
            <mxPoint x="224" y="1182" as="sourcePoint" />
            <mxPoint x="667" y="1182" as="targetPoint" />
          </mxGeometry>
        </mxCell>
        <mxCell id="WFSwsWvmqa4uhrpM-cqG-130" value="" style="endArrow=none;html=1;rounded=0;strokeColor=#000000;" edge="1" parent="1">
          <mxGeometry width="50" height="50" relative="1" as="geometry">
            <mxPoint x="201" y="1259" as="sourcePoint" />
            <mxPoint x="698" y="1259" as="targetPoint" />
          </mxGeometry>
        </mxCell>
        <mxCell id="WFSwsWvmqa4uhrpM-cqG-131" value="" style="endArrow=none;html=1;rounded=0;strokeColor=#000000;" edge="1" parent="1">
          <mxGeometry width="50" height="50" relative="1" as="geometry">
            <mxPoint x="666" y="1182" as="sourcePoint" />
            <mxPoint x="666" y="287" as="targetPoint" />
          </mxGeometry>
        </mxCell>
        <mxCell id="WFSwsWvmqa4uhrpM-cqG-132" value="" style="endArrow=none;html=1;rounded=0;strokeColor=#000000;" edge="1" parent="1">
          <mxGeometry width="50" height="50" relative="1" as="geometry">
            <mxPoint x="698" y="1258" as="sourcePoint" />
            <mxPoint x="696" y="309" as="targetPoint" />
          </mxGeometry>
        </mxCell>
        <mxCell id="WFSwsWvmqa4uhrpM-cqG-133" value="" style="endArrow=classic;html=1;rounded=0;strokeColor=#000000;entryX=0.91;entryY=0.558;entryDx=0;entryDy=0;entryPerimeter=0;" edge="1" parent="1" target="WFSwsWvmqa4uhrpM-cqG-27">
          <mxGeometry width="50" height="50" relative="1" as="geometry">
            <mxPoint x="666.25" y="287" as="sourcePoint" />
            <mxPoint x="153.25" y="206" as="targetPoint" />
          </mxGeometry>
        </mxCell>
        <mxCell id="WFSwsWvmqa4uhrpM-cqG-134" value="" style="endArrow=classic;html=1;rounded=0;strokeColor=#000000;" edge="1" parent="1" target="WFSwsWvmqa4uhrpM-cqG-27">
          <mxGeometry width="50" height="50" relative="1" as="geometry">
            <mxPoint x="695.5" y="310" as="sourcePoint" />
            <mxPoint x="182.5" y="229" as="targetPoint" />
          </mxGeometry>
        </mxCell>
        <mxCell id="WFSwsWvmqa4uhrpM-cqG-135" value="" style="endArrow=none;html=1;rounded=0;strokeColor=#000000;" edge="1" parent="1">
          <mxGeometry width="50" height="50" relative="1" as="geometry">
            <mxPoint x="116" y="1019" as="sourcePoint" />
            <mxPoint x="136" y="997" as="targetPoint" />
          </mxGeometry>
        </mxCell>
        <mxCell id="WFSwsWvmqa4uhrpM-cqG-136" value="" style="endArrow=none;html=1;rounded=0;strokeColor=#000000;" edge="1" parent="1">
          <mxGeometry width="50" height="50" relative="1" as="geometry">
            <mxPoint x="189" y="1022" as="sourcePoint" />
            <mxPoint x="200" y="1014" as="targetPoint" />
          </mxGeometry>
        </mxCell>
        <mxCell id="WFSwsWvmqa4uhrpM-cqG-137" value="" style="endArrow=none;html=1;rounded=0;strokeColor=#000000;" edge="1" parent="1">
          <mxGeometry width="50" height="50" relative="1" as="geometry">
            <mxPoint x="135" y="997" as="sourcePoint" />
            <mxPoint x="723" y="997" as="targetPoint" />
          </mxGeometry>
        </mxCell>
        <mxCell id="WFSwsWvmqa4uhrpM-cqG-138" value="" style="endArrow=none;html=1;rounded=0;strokeColor=#000000;" edge="1" parent="1">
          <mxGeometry width="50" height="50" relative="1" as="geometry">
            <mxPoint x="199.75" y="1015" as="sourcePoint" />
            <mxPoint x="751" y="1015" as="targetPoint" />
          </mxGeometry>
        </mxCell>
        <mxCell id="WFSwsWvmqa4uhrpM-cqG-139" value="" style="endArrow=none;html=1;rounded=0;strokeColor=#000000;" edge="1" parent="1">
          <mxGeometry width="50" height="50" relative="1" as="geometry">
            <mxPoint x="722" y="996" as="sourcePoint" />
            <mxPoint x="722" y="375" as="targetPoint" />
          </mxGeometry>
        </mxCell>
        <mxCell id="WFSwsWvmqa4uhrpM-cqG-140" value="" style="endArrow=none;html=1;rounded=0;strokeColor=#000000;" edge="1" parent="1">
          <mxGeometry width="50" height="50" relative="1" as="geometry">
            <mxPoint x="751" y="1016" as="sourcePoint" />
            <mxPoint x="751" y="762" as="targetPoint" />
          </mxGeometry>
        </mxCell>
        <mxCell id="WFSwsWvmqa4uhrpM-cqG-141" value="" style="endArrow=classic;html=1;rounded=0;strokeColor=#000000;entryX=0.974;entryY=0.515;entryDx=0;entryDy=0;entryPerimeter=0;" edge="1" parent="1" target="WFSwsWvmqa4uhrpM-cqG-35">
          <mxGeometry width="50" height="50" relative="1" as="geometry">
            <mxPoint x="751" y="762" as="sourcePoint" />
            <mxPoint x="238" y="681" as="targetPoint" />
          </mxGeometry>
        </mxCell>
        <mxCell id="WFSwsWvmqa4uhrpM-cqG-142" value="" style="endArrow=classic;html=1;rounded=0;strokeColor=#000000;entryX=0.626;entryY=0.925;entryDx=0;entryDy=0;entryPerimeter=0;" edge="1" parent="1" target="WFSwsWvmqa4uhrpM-cqG-27">
          <mxGeometry width="50" height="50" relative="1" as="geometry">
            <mxPoint x="722.5" y="374" as="sourcePoint" />
            <mxPoint x="143" y="315" as="targetPoint" />
          </mxGeometry>
        </mxCell>
        <mxCell id="WFSwsWvmqa4uhrpM-cqG-144" value="" style="endArrow=none;html=1;rounded=0;strokeColor=#000000;" edge="1" parent="1">
          <mxGeometry width="50" height="50" relative="1" as="geometry">
            <mxPoint x="98" y="1098" as="sourcePoint" />
            <mxPoint x="118" y="1076" as="targetPoint" />
          </mxGeometry>
        </mxCell>
        <mxCell id="WFSwsWvmqa4uhrpM-cqG-145" value="" style="endArrow=none;html=1;rounded=0;strokeColor=#000000;" edge="1" parent="1">
          <mxGeometry width="50" height="50" relative="1" as="geometry">
            <mxPoint x="117" y="1076" as="sourcePoint" />
            <mxPoint x="735" y="1076" as="targetPoint" />
          </mxGeometry>
        </mxCell>
        <mxCell id="WFSwsWvmqa4uhrpM-cqG-146" value="" style="endArrow=none;html=1;rounded=0;strokeColor=#000000;" edge="1" parent="1">
          <mxGeometry width="50" height="50" relative="1" as="geometry">
            <mxPoint x="162.75" y="1096" as="sourcePoint" />
            <mxPoint x="173.75" y="1088" as="targetPoint" />
          </mxGeometry>
        </mxCell>
        <mxCell id="WFSwsWvmqa4uhrpM-cqG-147" value="" style="endArrow=none;html=1;rounded=0;strokeColor=#000000;" edge="1" parent="1">
          <mxGeometry width="50" height="50" relative="1" as="geometry">
            <mxPoint x="173.5" y="1089" as="sourcePoint" />
            <mxPoint x="763" y="1089" as="targetPoint" />
          </mxGeometry>
        </mxCell>
        <mxCell id="WFSwsWvmqa4uhrpM-cqG-148" value="" style="endArrow=none;html=1;rounded=0;strokeColor=#000000;" edge="1" parent="1">
          <mxGeometry width="50" height="50" relative="1" as="geometry">
            <mxPoint x="735" y="1076" as="sourcePoint" />
            <mxPoint x="735" y="292" as="targetPoint" />
          </mxGeometry>
        </mxCell>
        <mxCell id="WFSwsWvmqa4uhrpM-cqG-150" value="" style="endArrow=classic;html=1;rounded=0;strokeColor=#000000;" edge="1" parent="1">
          <mxGeometry width="50" height="50" relative="1" as="geometry">
            <mxPoint x="737" y="292" as="sourcePoint" />
            <mxPoint x="95" y="267" as="targetPoint" />
          </mxGeometry>
        </mxCell>
        <mxCell id="WFSwsWvmqa4uhrpM-cqG-152" value="" style="endArrow=none;html=1;rounded=0;strokeColor=#000000;" edge="1" parent="1">
          <mxGeometry width="50" height="50" relative="1" as="geometry">
            <mxPoint x="762" y="1089" as="sourcePoint" />
            <mxPoint x="762" y="305" as="targetPoint" />
          </mxGeometry>
        </mxCell>
        <mxCell id="WFSwsWvmqa4uhrpM-cqG-153" value="" style="endArrow=classic;html=1;rounded=0;strokeColor=#000000;entryX=1.039;entryY=0.258;entryDx=0;entryDy=0;entryPerimeter=0;" edge="1" parent="1" target="WFSwsWvmqa4uhrpM-cqG-27">
          <mxGeometry width="50" height="50" relative="1" as="geometry">
            <mxPoint x="762" y="306" as="sourcePoint" />
            <mxPoint x="120" y="281" as="targetPoint" />
          </mxGeometry>
        </mxCell>
        <mxCell id="WFSwsWvmqa4uhrpM-cqG-154" value="" style="endArrow=none;html=1;rounded=0;strokeColor=#000000;" edge="1" parent="1">
          <mxGeometry width="50" height="50" relative="1" as="geometry">
            <mxPoint x="199.75" y="1349" as="sourcePoint" />
            <mxPoint x="770" y="1349" as="targetPoint" />
          </mxGeometry>
        </mxCell>
        <mxCell id="WFSwsWvmqa4uhrpM-cqG-155" value="" style="endArrow=none;html=1;rounded=0;strokeColor=#000000;" edge="1" parent="1">
          <mxGeometry width="50" height="50" relative="1" as="geometry">
            <mxPoint x="770" y="1349.5" as="sourcePoint" />
            <mxPoint x="768" y="268" as="targetPoint" />
          </mxGeometry>
        </mxCell>
        <mxCell id="WFSwsWvmqa4uhrpM-cqG-156" value="" style="endArrow=classic;html=1;rounded=0;strokeColor=#000000;" edge="1" parent="1">
          <mxGeometry width="50" height="50" relative="1" as="geometry">
            <mxPoint x="767" y="269" as="sourcePoint" />
            <mxPoint x="125" y="244" as="targetPoint" />
          </mxGeometry>
        </mxCell>
        <mxCell id="WFSwsWvmqa4uhrpM-cqG-157" value="" style="endArrow=none;html=1;rounded=0;strokeColor=#000000;" edge="1" parent="1">
          <mxGeometry width="50" height="50" relative="1" as="geometry">
            <mxPoint x="189" y="1438" as="sourcePoint" />
            <mxPoint x="789" y="1438" as="targetPoint" />
          </mxGeometry>
        </mxCell>
        <mxCell id="WFSwsWvmqa4uhrpM-cqG-158" value="" style="endArrow=none;html=1;rounded=0;strokeColor=#000000;" edge="1" parent="1">
          <mxGeometry width="50" height="50" relative="1" as="geometry">
            <mxPoint x="186.25" y="1529" as="sourcePoint" />
            <mxPoint x="804" y="1529" as="targetPoint" />
          </mxGeometry>
        </mxCell>
        <mxCell id="WFSwsWvmqa4uhrpM-cqG-159" value="" style="endArrow=none;html=1;rounded=0;strokeColor=#000000;" edge="1" parent="1">
          <mxGeometry width="50" height="50" relative="1" as="geometry">
            <mxPoint x="789" y="1438" as="sourcePoint" />
            <mxPoint x="787" y="356.5" as="targetPoint" />
          </mxGeometry>
        </mxCell>
        <mxCell id="WFSwsWvmqa4uhrpM-cqG-160" value="" style="endArrow=none;html=1;rounded=0;strokeColor=#000000;" edge="1" parent="1">
          <mxGeometry width="50" height="50" relative="1" as="geometry">
            <mxPoint x="805" y="1528.5" as="sourcePoint" />
            <mxPoint x="805" y="336" as="targetPoint" />
          </mxGeometry>
        </mxCell>
        <mxCell id="WFSwsWvmqa4uhrpM-cqG-161" value="" style="endArrow=classic;html=1;rounded=0;strokeColor=#000000;" edge="1" parent="1">
          <mxGeometry width="50" height="50" relative="1" as="geometry">
            <mxPoint x="788" y="357" as="sourcePoint" />
            <mxPoint x="122" y="262" as="targetPoint" />
          </mxGeometry>
        </mxCell>
        <mxCell id="WFSwsWvmqa4uhrpM-cqG-162" value="" style="endArrow=classic;html=1;rounded=0;strokeColor=#000000;" edge="1" parent="1">
          <mxGeometry width="50" height="50" relative="1" as="geometry">
            <mxPoint x="806" y="338" as="sourcePoint" />
            <mxPoint x="129" y="253" as="targetPoint" />
          </mxGeometry>
        </mxCell>
        <mxCell id="WFSwsWvmqa4uhrpM-cqG-163" value="" style="endArrow=none;html=1;rounded=0;strokeColor=#000000;" edge="1" parent="1">
          <mxGeometry width="50" height="50" relative="1" as="geometry">
            <mxPoint x="116.5" y="1604" as="sourcePoint" />
            <mxPoint x="136.5" y="1582" as="targetPoint" />
          </mxGeometry>
        </mxCell>
        <mxCell id="WFSwsWvmqa4uhrpM-cqG-164" value="" style="endArrow=none;html=1;rounded=0;strokeColor=#000000;" edge="1" parent="1">
          <mxGeometry width="50" height="50" relative="1" as="geometry">
            <mxPoint x="135.5" y="1582" as="sourcePoint" />
            <mxPoint x="835" y="1582" as="targetPoint" />
          </mxGeometry>
        </mxCell>
        <mxCell id="WFSwsWvmqa4uhrpM-cqG-165" value="" style="endArrow=none;html=1;rounded=0;strokeColor=#000000;" edge="1" parent="1">
          <mxGeometry width="50" height="50" relative="1" as="geometry">
            <mxPoint x="194" y="1609" as="sourcePoint" />
            <mxPoint x="203" y="1598" as="targetPoint" />
          </mxGeometry>
        </mxCell>
        <mxCell id="WFSwsWvmqa4uhrpM-cqG-166" value="" style="endArrow=none;html=1;rounded=0;strokeColor=#000000;" edge="1" parent="1">
          <mxGeometry width="50" height="50" relative="1" as="geometry">
            <mxPoint x="203" y="1598" as="sourcePoint" />
            <mxPoint x="890" y="1598" as="targetPoint" />
          </mxGeometry>
        </mxCell>
        <mxCell id="WFSwsWvmqa4uhrpM-cqG-168" value="" style="endArrow=none;html=1;rounded=0;strokeColor=#000000;" edge="1" parent="1">
          <mxGeometry width="50" height="50" relative="1" as="geometry">
            <mxPoint x="835" y="1582.5" as="sourcePoint" />
            <mxPoint x="835" y="390" as="targetPoint" />
          </mxGeometry>
        </mxCell>
        <mxCell id="WFSwsWvmqa4uhrpM-cqG-169" value="" style="endArrow=none;html=1;rounded=0;strokeColor=#000000;" edge="1" parent="1">
          <mxGeometry width="50" height="50" relative="1" as="geometry">
            <mxPoint x="890" y="1599" as="sourcePoint" />
            <mxPoint x="890" y="406.5" as="targetPoint" />
          </mxGeometry>
        </mxCell>
        <mxCell id="WFSwsWvmqa4uhrpM-cqG-170" value="" style="endArrow=classic;html=1;rounded=0;strokeColor=#000000;" edge="1" parent="1">
          <mxGeometry width="50" height="50" relative="1" as="geometry">
            <mxPoint x="835" y="391" as="sourcePoint" />
            <mxPoint x="114" y="267" as="targetPoint" />
          </mxGeometry>
        </mxCell>
        <mxCell id="WFSwsWvmqa4uhrpM-cqG-171" value="" style="endArrow=classic;html=1;rounded=0;strokeColor=#000000;" edge="1" parent="1">
          <mxGeometry width="50" height="50" relative="1" as="geometry">
            <mxPoint x="891" y="406" as="sourcePoint" />
            <mxPoint x="136" y="260" as="targetPoint" />
          </mxGeometry>
        </mxCell>
        <mxCell id="WFSwsWvmqa4uhrpM-cqG-173" value="" style="endArrow=none;html=1;rounded=0;strokeColor=#000000;" edge="1" parent="1">
          <mxGeometry width="50" height="50" relative="1" as="geometry">
            <mxPoint x="151" y="1691" as="sourcePoint" />
            <mxPoint x="171" y="1669" as="targetPoint" />
          </mxGeometry>
        </mxCell>
        <mxCell id="WFSwsWvmqa4uhrpM-cqG-174" value="" style="endArrow=none;html=1;rounded=0;strokeColor=#000000;" edge="1" parent="1">
          <mxGeometry width="50" height="50" relative="1" as="geometry">
            <mxPoint x="170" y="1669" as="sourcePoint" />
            <mxPoint x="916" y="1669" as="targetPoint" />
          </mxGeometry>
        </mxCell>
        <mxCell id="WFSwsWvmqa4uhrpM-cqG-175" value="" style="endArrow=none;html=1;rounded=0;strokeColor=#000000;" edge="1" parent="1">
          <mxGeometry width="50" height="50" relative="1" as="geometry">
            <mxPoint x="915" y="1667.5" as="sourcePoint" />
            <mxPoint x="917" y="707" as="targetPoint" />
          </mxGeometry>
        </mxCell>
        <mxCell id="WFSwsWvmqa4uhrpM-cqG-176" value="" style="endArrow=classic;html=1;rounded=0;strokeColor=#000000;" edge="1" parent="1">
          <mxGeometry width="50" height="50" relative="1" as="geometry">
            <mxPoint x="917.75" y="708" as="sourcePoint" />
            <mxPoint x="157" y="654" as="targetPoint" />
          </mxGeometry>
        </mxCell>
        <mxCell id="WFSwsWvmqa4uhrpM-cqG-177" value="" style="endArrow=none;html=1;rounded=0;strokeColor=#000000;" edge="1" parent="1">
          <mxGeometry width="50" height="50" relative="1" as="geometry">
            <mxPoint x="259" y="1693" as="sourcePoint" />
            <mxPoint x="268" y="1682" as="targetPoint" />
          </mxGeometry>
        </mxCell>
        <mxCell id="WFSwsWvmqa4uhrpM-cqG-178" value="" style="endArrow=none;html=1;rounded=0;strokeColor=#000000;" edge="1" parent="1">
          <mxGeometry width="50" height="50" relative="1" as="geometry">
            <mxPoint x="268" y="1682" as="sourcePoint" />
            <mxPoint x="955" y="1682" as="targetPoint" />
          </mxGeometry>
        </mxCell>
        <mxCell id="WFSwsWvmqa4uhrpM-cqG-179" value="" style="endArrow=none;html=1;rounded=0;strokeColor=#000000;" edge="1" parent="1">
          <mxGeometry width="50" height="50" relative="1" as="geometry">
            <mxPoint x="954" y="1682.5" as="sourcePoint" />
            <mxPoint x="956" y="722" as="targetPoint" />
          </mxGeometry>
        </mxCell>
        <mxCell id="WFSwsWvmqa4uhrpM-cqG-180" value="" style="endArrow=classic;html=1;rounded=0;strokeColor=#000000;entryX=0.994;entryY=0.977;entryDx=0;entryDy=0;entryPerimeter=0;" edge="1" parent="1" target="WFSwsWvmqa4uhrpM-cqG-34">
          <mxGeometry width="50" height="50" relative="1" as="geometry">
            <mxPoint x="954.75" y="722" as="sourcePoint" />
            <mxPoint x="194" y="668" as="targetPoint" />
          </mxGeometry>
        </mxCell>
        <mxCell id="WFSwsWvmqa4uhrpM-cqG-181" value="" style="endArrow=none;html=1;rounded=0;strokeColor=#000000;" edge="1" parent="1">
          <mxGeometry width="50" height="50" relative="1" as="geometry">
            <mxPoint x="256" y="1779" as="sourcePoint" />
            <mxPoint x="276" y="1757" as="targetPoint" />
          </mxGeometry>
        </mxCell>
        <mxCell id="WFSwsWvmqa4uhrpM-cqG-182" value="" style="endArrow=none;html=1;rounded=0;strokeColor=#000000;" edge="1" parent="1">
          <mxGeometry width="50" height="50" relative="1" as="geometry">
            <mxPoint x="275" y="1757" as="sourcePoint" />
            <mxPoint x="987" y="1757" as="targetPoint" />
          </mxGeometry>
        </mxCell>
        <mxCell id="WFSwsWvmqa4uhrpM-cqG-185" value="" style="endArrow=none;html=1;rounded=0;strokeColor=#000000;" edge="1" parent="1">
          <mxGeometry width="50" height="50" relative="1" as="geometry">
            <mxPoint x="986" y="1758.5" as="sourcePoint" />
            <mxPoint x="988" y="703" as="targetPoint" />
          </mxGeometry>
        </mxCell>
        <mxCell id="WFSwsWvmqa4uhrpM-cqG-187" value="" style="endArrow=classic;html=1;rounded=0;strokeColor=#000000;entryX=0.948;entryY=0.762;entryDx=0;entryDy=0;entryPerimeter=0;" edge="1" parent="1" target="WFSwsWvmqa4uhrpM-cqG-34">
          <mxGeometry width="50" height="50" relative="1" as="geometry">
            <mxPoint x="990" y="703" as="sourcePoint" />
            <mxPoint x="186.25" y="643" as="targetPoint" />
          </mxGeometry>
        </mxCell>
        <mxCell id="WFSwsWvmqa4uhrpM-cqG-192" value="" style="endArrow=none;html=1;rounded=0;strokeColor=#000000;" edge="1" parent="1">
          <mxGeometry width="50" height="50" relative="1" as="geometry">
            <mxPoint x="341" y="1780" as="sourcePoint" />
            <mxPoint x="350" y="1769" as="targetPoint" />
          </mxGeometry>
        </mxCell>
        <mxCell id="WFSwsWvmqa4uhrpM-cqG-193" value="" style="endArrow=none;html=1;rounded=0;strokeColor=#000000;" edge="1" parent="1">
          <mxGeometry width="50" height="50" relative="1" as="geometry">
            <mxPoint x="350" y="1769" as="sourcePoint" />
            <mxPoint x="1037" y="1769" as="targetPoint" />
          </mxGeometry>
        </mxCell>
        <mxCell id="WFSwsWvmqa4uhrpM-cqG-194" value="" style="endArrow=none;html=1;rounded=0;strokeColor=#000000;" edge="1" parent="1">
          <mxGeometry width="50" height="50" relative="1" as="geometry">
            <mxPoint x="1037" y="1769.5" as="sourcePoint" />
            <mxPoint x="1037" y="326" as="targetPoint" />
          </mxGeometry>
        </mxCell>
        <mxCell id="WFSwsWvmqa4uhrpM-cqG-195" value="" style="endArrow=none;html=1;rounded=0;strokeColor=#000000;" edge="1" parent="1">
          <mxGeometry width="50" height="50" relative="1" as="geometry">
            <mxPoint x="463" y="1789.13" as="sourcePoint" />
            <mxPoint x="1068" y="1789" as="targetPoint" />
          </mxGeometry>
        </mxCell>
        <mxCell id="WFSwsWvmqa4uhrpM-cqG-196" value="" style="endArrow=classic;html=1;rounded=0;strokeColor=#000000;entryX=-0.077;entryY=0.819;entryDx=0;entryDy=0;entryPerimeter=0;" edge="1" parent="1" target="WFSwsWvmqa4uhrpM-cqG-27">
          <mxGeometry width="50" height="50" relative="1" as="geometry">
            <mxPoint x="1038" y="328" as="sourcePoint" />
            <mxPoint x="283" y="182" as="targetPoint" />
          </mxGeometry>
        </mxCell>
        <mxCell id="WFSwsWvmqa4uhrpM-cqG-198" value="" style="endArrow=none;html=1;rounded=0;strokeColor=#000000;" edge="1" parent="1">
          <mxGeometry width="50" height="50" relative="1" as="geometry">
            <mxPoint x="1068" y="1790" as="sourcePoint" />
            <mxPoint x="1070" y="779" as="targetPoint" />
          </mxGeometry>
        </mxCell>
        <mxCell id="WFSwsWvmqa4uhrpM-cqG-199" value="" style="endArrow=classic;html=1;rounded=0;strokeColor=#000000;" edge="1" parent="1">
          <mxGeometry width="50" height="50" relative="1" as="geometry">
            <mxPoint x="1070" y="781" as="sourcePoint" />
            <mxPoint x="119" y="735" as="targetPoint" />
          </mxGeometry>
        </mxCell>
        <mxCell id="WFSwsWvmqa4uhrpM-cqG-200" value="" style="endArrow=none;html=1;rounded=0;strokeColor=#000000;" edge="1" parent="1">
          <mxGeometry width="50" height="50" relative="1" as="geometry">
            <mxPoint x="179" y="1866" as="sourcePoint" />
            <mxPoint x="199" y="1844" as="targetPoint" />
          </mxGeometry>
        </mxCell>
        <mxCell id="WFSwsWvmqa4uhrpM-cqG-201" value="" style="endArrow=none;html=1;rounded=0;strokeColor=#000000;" edge="1" parent="1">
          <mxGeometry width="50" height="50" relative="1" as="geometry">
            <mxPoint x="198" y="1844" as="sourcePoint" />
            <mxPoint x="1100" y="1844" as="targetPoint" />
          </mxGeometry>
        </mxCell>
        <mxCell id="WFSwsWvmqa4uhrpM-cqG-202" value="" style="endArrow=none;html=1;rounded=0;strokeColor=#000000;" edge="1" parent="1">
          <mxGeometry width="50" height="50" relative="1" as="geometry">
            <mxPoint x="122" y="1957" as="sourcePoint" />
            <mxPoint x="142" y="1935" as="targetPoint" />
          </mxGeometry>
        </mxCell>
        <mxCell id="WFSwsWvmqa4uhrpM-cqG-203" value="" style="endArrow=none;html=1;rounded=0;strokeColor=#000000;" edge="1" parent="1">
          <mxGeometry width="50" height="50" relative="1" as="geometry">
            <mxPoint x="141" y="1935" as="sourcePoint" />
            <mxPoint x="1127" y="1931" as="targetPoint" />
          </mxGeometry>
        </mxCell>
        <mxCell id="WFSwsWvmqa4uhrpM-cqG-204" value="" style="endArrow=none;html=1;rounded=0;strokeColor=#000000;" edge="1" parent="1">
          <mxGeometry width="50" height="50" relative="1" as="geometry">
            <mxPoint x="1101" y="1845" as="sourcePoint" />
            <mxPoint x="1103" y="744" as="targetPoint" />
          </mxGeometry>
        </mxCell>
        <mxCell id="WFSwsWvmqa4uhrpM-cqG-205" value="" style="endArrow=classic;html=1;rounded=0;strokeColor=#000000;entryX=1.006;entryY=0.759;entryDx=0;entryDy=0;entryPerimeter=0;" edge="1" parent="1" target="WFSwsWvmqa4uhrpM-cqG-35">
          <mxGeometry width="50" height="50" relative="1" as="geometry">
            <mxPoint x="1104" y="746" as="sourcePoint" />
            <mxPoint x="153" y="700" as="targetPoint" />
          </mxGeometry>
        </mxCell>
        <mxCell id="WFSwsWvmqa4uhrpM-cqG-206" value="" style="endArrow=none;html=1;rounded=0;strokeColor=#000000;" edge="1" parent="1">
          <mxGeometry width="50" height="50" relative="1" as="geometry">
            <mxPoint x="1127" y="1931" as="sourcePoint" />
            <mxPoint x="1129" y="405" as="targetPoint" />
          </mxGeometry>
        </mxCell>
        <mxCell id="WFSwsWvmqa4uhrpM-cqG-207" value="" style="endArrow=classic;html=1;rounded=0;strokeColor=#000000;entryX=0.933;entryY=0.898;entryDx=0;entryDy=0;entryPerimeter=0;" edge="1" parent="1" target="WFSwsWvmqa4uhrpM-cqG-28">
          <mxGeometry width="50" height="50" relative="1" as="geometry">
            <mxPoint x="1128" y="405" as="sourcePoint" />
            <mxPoint x="130" y="392" as="targetPoint" />
          </mxGeometry>
        </mxCell>
      </root>
    </mxGraphModel>
  </diagram>
</mxfile>
